<svg xmlns="http://www.w3.org/2000/svg" id="Ambulance" width="340" height="189.3" viewBox="0 0 340 189.3"><style>.st0{fill:#b9b0bf}</style><g id="Ambulance_1_"><path d="M305.3 130v-15.4H120.6l1.1 36.4s84 .2 84 0c0-14.7 11.8-28 26.3-28 14.4 0 26.1 11.7 26.3 26.2 17.2-.3 32.8-.5 40.5-.7 20.1-.4 14.7-5.8 15.8-11.6 1.1-5.8-9.3-6.9-9.3-6.9zM117.9 37.4c-1-1-2.7-2.1-5.9-2.1-7.2 0-12.2.4-14.4 3.6-2.2 3.3-3.6 8-3.2 9.8.2 1.2-6.8 3-7.8 3.6-7.2 4.2-12.8 12.4-19.2 17.8-5.1 4.4-11.9 10.9-19 11.5-9.8.9-28.3 5.7-29.7 18.6H117c-.3-14.9.3-42.8.9-62.8zm-6.7 51.5H73.5c-2.1 0-1.3-6.7-.9-7.7 1-2.9 3.4-5.3 5.4-7.5 4.9-5.3 10.1-11.5 16.8-14.3 5.4-2.2 10.8-1.6 16.4-1.6 4 0 0 31.1 0 31.1zm-93.5 25.7s-1.7 6.9-3.1 10.9-1.8 14.6 5 16c.7.1 2.1.3 4.1.4C27.1 131 37.1 123 48.9 123c14.5 0 26.3 12 26.3 26.7v1.1c4.1.1 14.8.2 28.3.3v-.1h14.8c-.3-10.6-.7-28.8-1-36.4H17.7zm207.4-40.5h4l-2.1-5.9zm-44.6-3.5c.5-.3.7-.9.7-1.6 0-.3-.1-.6-.2-.9-.1-.3-.3-.5-.5-.6-.2-.2-.6-.3-1-.4s-.9-.1-1.5-.1h-2.9v4.1h3.1c1 0 1.8-.2 2.3-.5zm.6 4.2c-.3-.2-.7-.3-1.1-.4-.5-.1-1-.1-1.7-.1h-3.1v4.9h3.4c2.2 0 3.3-.8 3.3-2.4 0-.4-.1-.8-.2-1.1-.1-.4-.3-.7-.6-.9zm-42.5-.7h4.1l-2.1-5.9z" class="st0"/><path d="M305.3 36.7s0-6.9-14.7-7.3-164.9 0-164.9 0-2.4 1.4-4.3 3.3c-.6 20.2-1.4 51.5-1.1 67.5h184.9l.1-63.5zM145.6 82.2l-1.9-5.3h-6l-1.8 5.3h-3.4l6.7-18.4h3.1l7 18.4h-3.7zm22.1 0h-3.1V70.5l-3.7 11.8h-2.7l-3.7-11.8v11.8h-3.1V63.9h4.2l4 13.1 4-13.1h4.2l-.1 18.3zm15.8-1.4c-1.1.9-2.8 1.4-5 1.4h-6.6V63.9h6.3c.9 0 1.8.1 2.5.3.8.2 1.4.6 1.9 1s.9.9 1.2 1.6c.3.6.4 1.3.4 2.1s-.1 1.5-.4 2c-.3.6-.7 1.1-1.3 1.5.4.2.8.5 1.1.8s.6.6.8 1 .4.8.5 1.2c.1.4.1.9.1 1.3.2 1.8-.4 3.2-1.5 4.1zm18.9-6.4c0 1.3-.1 2.4-.3 3.4s-.6 1.9-1.1 2.6-1.2 1.2-2.1 1.6c-.9.4-2 .6-3.4.6-1.1 0-2-.1-2.8-.3-.8-.2-1.4-.5-1.9-.9s-.9-.9-1.2-1.4-.5-1.1-.7-1.7c-.1-.6-.2-1.2-.3-1.9 0-.6-.1-1.3-.1-1.9V63.9h3.2v10.5c0 1 .1 1.9.2 2.6.2.7.4 1.2.7 1.5.3.4.7.6 1.2.8.5.1 1 .2 1.6.2s1.1-.1 1.6-.2.8-.4 1.2-.8c.3-.4.5-.9.7-1.5.2-.7.2-1.5.2-2.5V63.9h3.2v10.5h.1zm15.4 7.8h-11.1V63.9h3.2v15.2h7.9v3.1zm14.2 0l-1.9-5.3h-6l-1.8 5.3h-3.4l6.6-18.4h3.1l7 18.4H232zm19.6 0h-3l-7.7-12.3v12.3h-3.1V63.9h3l7.7 12.3V63.9h3.1v18.3zm17.9-3.3c-.4.8-.9 1.5-1.5 2s-1.3 1-2.2 1.2c-.8.3-1.7.4-2.6.4-1.2 0-2.4-.2-3.4-.7-1-.4-1.8-1.1-2.5-1.9s-1.2-1.8-1.6-3-.6-2.5-.6-3.9.2-2.8.6-3.9c.4-1.2.9-2.2 1.6-3s1.6-1.5 2.6-1.9 2.1-.7 3.3-.7c.9 0 1.7.1 2.5.4.8.3 1.5.7 2.1 1.2s1.2 1.2 1.6 1.9c.4.8.7 1.6.9 2.5H267c-.1-.5-.2-.9-.5-1.3-.2-.4-.5-.7-.8-.9-.3-.3-.7-.5-1.1-.6s-.9-.2-1.4-.2c-.7 0-1.4.1-2 .4s-1.1.7-1.5 1.2-.7 1.2-1 2c-.2.8-.3 1.7-.3 2.8 0 1 .1 1.9.3 2.7.2.8.6 1.5 1 2 .4.6.9 1 1.5 1.2.6.3 1.2.4 2 .4 1 0 1.9-.3 2.6-.9s1.1-1.4 1.3-2.5h3.3c-.2 1.4-.5 2.3-.9 3.1zm17.4 3.3h-13.2V63.9h12.8V67h-9.6v4.1h9v3.1h-9V79h10v3.2zm-238 44.1c-12.8 0-23.1 10.5-23.1 23.4s10.3 23.4 23.1 23.4S72 162.6 72 149.7s-10.3-23.4-23.1-23.4zm-1 31.9c-4.6 0-8.4-3.8-8.4-8.5s3.8-8.5 8.4-8.5 8.4 3.8 8.4 8.5-3.8 8.5-8.4 8.5zM232 126.3c-12.8 0-23.1 10.5-23.1 23.4s10.3 23.4 23.1 23.4 23.1-10.5 23.1-23.4-10.4-23.4-23.1-23.4zm-.9 31.9c-4.6 0-8.4-3.8-8.4-8.5s3.8-8.5 8.4-8.5c4.6 0 8.4 3.8 8.4 8.5s-3.8 8.5-8.4 8.5z" class="st0"/></g></svg>