<svg xmlns="http://www.w3.org/2000/svg" id="BridgeWorks" width="453.2" height="219.2" viewBox="0 0 453.2 219.2"><style>.st0{opacity:.3}.st1{fill:#30302f}.st2{opacity:.6}.st3{fill:#b34c30}.st4{fill:none;stroke:#eae5da;stroke-width:1.762;stroke-miterlimit:10}.st5{fill:gray}</style><g id="Car3" class="st0"><path d="M42.3 36.8c-4.4 0-8 3.6-8 8 0 .8.1 1.5.3 2.2 1 3.4 4 5.8 7.7 5.8S49 50.4 50 47c.2-.7.3-1.4.3-2.2 0-4.4-3.6-8-8-8m61.2 0c-4.4 0-8 3.6-8 8 0 .8.1 1.5.3 2.2 1 3.4 4 5.8 7.7 5.8s6.7-2.5 7.7-5.8c.2-.7.3-1.4.3-2.2 0-4.4-3.6-8-8-8" class="st1"/><path d="M92.5 27.8L72.1 27c-.1 0-.2-.1-.3-.2l-1-7.8c0-.2.1-.3.3-.3 1.4 0 6-.1 12.4 2.5 3.1 1.3 6.3 2.9 9.5 5.5.4.4.1 1.1-.5 1.1m-24.7-1.3s0 .1 0 0c-.1.1-.2.2-.3.2l-21.1-.3c-.3 0-.4-.4-.2-.6 1.1-1.2 4-4 9.1-5.7 5.5-1.8 10-1.8 11.2-1.7.1 0 .2.1.3.2l1 7.6c.1.2.1.3 0 .3M121 38s.5-2.2-.9-4.2c-.1-.2-.2-.3-.2-.3s-1.2-3.9-19.1-6.1c-2.6-.4-7.5-7.3-21.5-10.7-7.4-1.8-18.2-2.4-24.6-.4-10.3 3.1-10.9 7.5-17.8 9.2-1.8.4-4.3.9-6.5 1.8-1.9.8-3.7 1.6-3.9 3.7-.5 6.3-1.4 5.6-1.4 8.7v4c.1 1.9 1.7 3.4 3.6 3.4h3.4c-.2-.8-.4-1.5-.4-2.3 0-5.8 4.7-10.4 10.4-10.4S52.7 39 52.7 44.7c0 .8-.1 1.5-.3 2.3h41c-.2-.8-.4-1.5-.4-2.3 0-5.8 4.7-10.4 10.4-10.4 5.8 0 10.4 4.7 10.4 10.4 0 .8-.1 1.5-.3 2.3h5.9c2.6 0 2.6-6.6 1.6-9" class="st1"/></g><g id="Car2" class="st2"><path d="M156.8 36.8c-4.4 0-8 3.6-8 8 0 .8.1 1.5.3 2.2 1 3.4 4 5.8 7.7 5.8s6.7-2.5 7.7-5.8c.2-.7.3-1.4.3-2.2 0-4.4-3.6-8-8-8m61.2 0c-4.4 0-8 3.6-8 8 0 .8.1 1.5.3 2.2 1 3.4 4 5.8 7.7 5.8s6.7-2.5 7.7-5.8c.2-.7.3-1.4.3-2.2 0-4.4-3.6-8-8-8" class="st1"/><path d="M207.1 27.8l-20.4-.8c-.1 0-.2-.1-.3-.2l-1.1-7.8c0-.2.1-.3.3-.3 1.4 0 6-.1 12.4 2.5 3.1 1.3 6.3 2.9 9.5 5.5.4.4.1 1.1-.4 1.1m-24.7-1.3s0 .1 0 0c-.1.1-.2.2-.3.2l-21.1-.3c-.3 0-.4-.4-.2-.6 1.1-1.2 4-4 9.1-5.7 5.5-1.8 10-1.8 11.2-1.7.1 0 .2.1.3.2l1 7.6v.3M235.5 38s.5-2.2-.9-4.2c-.1-.2-.2-.3-.2-.3s-1.2-3.9-19.1-6.1c-2.6-.4-7.5-7.3-21.5-10.7-7.4-1.8-18.2-2.4-24.6-.4-10.3 3.1-10.9 7.5-17.8 9.2-1.8.4-4.3.9-6.5 1.8-1.9.8-3.7 1.6-3.9 3.7-.5 6.3-1.4 5.6-1.4 8.7v4c.1 1.9 1.7 3.4 3.6 3.4h3.4c-.2-.8-.4-1.5-.4-2.3 0-5.8 4.7-10.4 10.4-10.4S167 39.1 167 44.8c0 .8-.1 1.5-.3 2.3h41c-.2-.8-.4-1.5-.4-2.3 0-5.8 4.7-10.4 10.4-10.4s10.4 4.7 10.4 10.4c0 .8-.1 1.5-.3 2.3h5.9c2.8-.1 2.8-6.7 1.8-9.1" class="st1"/></g><g id="Car1"><path d="M282.6 36.8c-4.4 0-8 3.6-8 8 0 .8.1 1.5.3 2.2 1 3.4 4 5.8 7.7 5.8s6.7-2.5 7.7-5.8c.2-.7.3-1.4.3-2.2 0-4.4-3.6-8-8-8m61.2 0c-4.4 0-8 3.6-8 8 0 .8.1 1.5.3 2.2 1 3.4 4 5.8 7.7 5.8s6.7-2.5 7.7-5.8c.2-.7.3-1.4.3-2.2 0-4.4-3.6-8-8-8" class="st1"/><path d="M332.8 27.8l-20.4-.8c-.1 0-.2-.1-.3-.2L311 19c0-.2.1-.3.3-.3 1.4 0 6-.1 12.4 2.5 3.1 1.3 6.3 2.9 9.5 5.5.5.4.2 1.1-.4 1.1m-24.7-1.3s0 .1 0 0c-.1.1-.2.2-.3.2l-21.1-.3c-.3 0-.4-.4-.2-.6 1.1-1.2 4-4 9.1-5.7 5.5-1.8 10-1.8 11.2-1.7.1 0 .2.1.3.2l1 7.6c.1.2.1.3 0 .3M361.3 38s.5-2.2-.9-4.2c-.1-.2-.2-.3-.2-.3s-1.2-3.9-19.1-6.1c-2.6-.4-7.5-7.3-21.5-10.7-7.4-1.8-18.2-2.4-24.6-.4-10.3 3.1-10.9 7.5-17.8 9.2-1.8.4-4.3.9-6.5 1.8-1.9.8-3.7 1.6-3.9 3.7-.5 6.3-1.4 5.6-1.4 8.7v4c.1 1.9 1.7 3.4 3.6 3.4h3.4c-.2-.8-.4-1.5-.4-2.3 0-5.8 4.7-10.4 10.4-10.4S293 39 293 44.7c0 .8-.1 1.5-.3 2.3h41c-.2-.8-.4-1.5-.4-2.3 0-5.8 4.7-10.4 10.4-10.4s10.4 4.7 10.4 10.4c0 .8-.1 1.5-.3 2.3h5.9c2.6 0 2.6-6.6 1.6-9" class="st1"/></g><g id="Bridge_1_"><path d="M17.8 54.6H437l-11.7 12.7h-31.1l-29.6 21.9v47.2l-12.8 13.1V89.2l-29.7-21.9H132l-29.7 21.9v59.7l-12.8-13V89.2L59.9 67.3H29.5z" class="st3"/><path d="M125.6 141.4V98.3l24.1-18.4h154.7l24.1 18.4V142l19 10.9V92.5l-28.7-21.8H135.3l-28.7 21.8v59.8zM437.1 38.8H16.9v14.5h5.6v-9.7h11.8v9.7h5.5v-9.7h11.8v9.7h5.5v-9.7h11.8v9.7h5.5v-9.7h11.8v9.7h5.5v-9.7h11.8v9.7h5.5v-9.7h11.8v9.7h5.5v-9.7h11.8v9.7h5.5v-9.7h11.9v9.7h5.4v-9.7h11.9v9.7h5.5v-9.7h11.8v9.7h5.5v-9.7h11.8v9.7h5.5v-9.7h11.8v9.7h5.5v-9.7H242v9.7h5.5v-9.7h11.8v9.7h5.5v-9.7h11.8v9.7h5.5v-9.7h11.8v9.7h5.5v-9.7h11.8v9.7h5.5v-9.7h11.8v9.7h5.5v-9.7h11.9v9.7h5.4v-9.7h11.9v9.7h5.4v-9.7h11.9v9.7h5.5v-9.7h11.8v9.7h5.5v-9.7h11.8v9.7h5.5v-9.7h11.8v9.7h5.6V38.8z" class="st3"/><path d="M437.1 53.3h-4.7v-9.7h-11.8v9.7h-5.5v-9.7h-11.8v9.7h-5.5v-9.7H386v9.7h-5.5v-9.7h-11.9v9.7h-5.4v-9.7h-11.9v9.7h-5.4v-9.7H334v9.7h-5.5v-9.7h-11.8v9.7h-5.5v-9.7h-11.8v9.7h-5.5v-9.7h-11.8v9.7h-5.5v-9.7h-11.8v9.7h-5.5v-9.7h-11.8v9.7H242v-9.7h-11.8v9.7h-5.5v-9.7h-11.8v9.7h-5.5v-9.7h-11.8v9.7h-5.5v-9.7h-11.9v9.7h-5.4v-9.7h-11.9v9.7h-5.4v-9.7h-11.9v9.7h-5.5v-9.7h-11.8v9.7h-5.5v-9.7H109v9.7h-5.5v-9.7H91.7v9.7h-5.5v-9.7H74.4v9.7h-5.5v-9.7H57.1v9.7h-5.5v-9.7H39.8v9.7h-5.5v-9.7H22.5v9.7h-5.6V38.8H438v14.5z" class="st4"/></g><g id="Road_1_"><path d="M62.9 194.7h37.5l123.5-104zm56.6 0H218l5.9-104z" class="st5"/><path d="M347.4 194.7h37.5l-161-104z" class="st5"/><path d="M229.8 194.7h98.4l-104.3-104z" class="st5"/></g></svg>