<svg xmlns="http://www.w3.org/2000/svg" id="Lightbulb" width="159.4" height="216.7" viewBox="0 0 159.4 216.7"><style>.st0{fill:#413d3a}.st1{opacity:.33;fill:#333;enable-background:new}</style><g id="Bulbbase_1_"><g id="Bulbbase"><g id="LightBulb"><path id="BulbBase" d="M140.2 173.5c-.4-1.8-3.5-2.3-4.9-2.6-.4-.1-.7-.7-.5-1.1.7-1.2 2.2-3.6 1.5-5.3s-3.5-2.3-4.9-2.6c-.4-.1-.7-.7-.5-1.1.7-1.2 2.2-3.6 1.5-5.3s-3.5-2.3-4.9-2.6c-.5-.1-.7-.7-.5-1.1.8-1.3 2.2-3.8 1.4-5.6-1.1-2.3-4.9-2.9-6.8-2.1l-17.3 7.3-.2.1-17.1 7.4c-1.9.8-4.1 3.9-3.2 6.3.7 1.9 3.5 2.5 5 2.9.5.1.7.7.5 1.1-.7 1.2-2.2 3.6-1.5 5.3s3.5 2.3 4.9 2.6c.5.1.7.7.5 1.1-.7 1.2-2.2 3.6-1.5 5.3s3.5 2.3 4.9 2.6c.5.1.7.7.5 1.1-.7 1.2-2.6 3.8-1.5 5.3 1.2 1.8 8.3 3.4 14.3 4.5l23.7-10.1c3.3-5.1 7-11.3 6.6-13.4zm-25.7 26.3c2 2.5 5.5 3.5 8.6 2.2l4.5-1.9c3.1-1.3 4.8-4.5 4.4-7.7l-17.5 7.4z" class="st0"/></g></g></g><g id="Bulb_2_"><g id="Bulb_1_"><path id="Bulb" d="M55.6 36.9c-21.1 8.9-30.9 33.4-22 54.4.5 1.2-.1 2.7-1.3 3.2s-2.7-.1-3.2-1.3c-10-23.6 1-50.8 24.6-60.8 1.2-.5 2.7.1 3.2 1.3.6 1.2 0 2.7-1.3 3.2m70.2 15.3c-12.6-29.8-47-43.7-76.8-31C19.2 33.8 5.2 68.2 17.9 98c6.8 16.1 20 27.6 35.4 32.7l-.3.1s6.2 2 10.2 11.6c4.1 9.6 5.9 15.2 12.1 16.1l27-11.5 27-11.5c3.7-5.1.9-10.3-3.1-19.9-4.1-9.6-1.2-15.4-1.2-15.4l-.3.1c7-14.5 8-32 1.1-48.1" class="st1"/></g></g></svg>