<svg xmlns="http://www.w3.org/2000/svg" id="Eectriccar" width="210" height="205.6" viewBox="0 0 210 205.6"><style>.st0{fill:#333}</style><path id="Plug" d="M163.2 81.5h-10.8c0-.1 0-.3-.1-.4V81l.3 13.7v-1.9h10.6c5.7 0 10.4 4.7 10.4 10.4v54.1c0 5.7-4.7 10.4-10.4 10.4h-40.4c-2.3-12.5-13.5-16.9-24.2-16.9H84.5v3.6H67.3c-2.5 0-4.5 2-4.5 4.5s2 4.5 4.5 4.5h17.2v18.1H67.3c-2.5 0-4.5 2-4.5 4.5s2 4.5 4.5 4.5h17.2v3.6h14.1c10.2 0 21-3.6 23.9-15.4h40.7c11.9 0 21.6-9.7 21.6-21.6V103c0-11.8-9.7-21.5-21.6-21.5z" class="st0"/><path id="Car_1_" d="M151.6 78.1c-.6-2.2-1.7-5.7-2.9-9.3l.4-.4c8.9-8.9 6.6-13.5-.1-13.5h-4.8l-7-22.8-.1-.3c-3.5-9-10.3-12.7-15.2-13.1-5-.4-19.5-.6-31.5-.6s-26.5.1-31.5.6c-4.8.4-11.7 4.1-15.2 13.1l-7.1 23.1H32c-6.7 0-9 4.6-.1 13.5.2.1.3.3.4.4-1.1 3.6-2.2 7.1-2.9 9.3-.3 1-.5 1.9-.7 2.9v.1c-.2 1.3-.3 2.8-.3 4.8v41.3c0 2.5 2 4.6 4.6 4.6h13.1c2.5 0 4.6-2 4.6-4.6v-5.9h79.8v5.9c0 2.5 2 4.6 4.6 4.6h13.1c2.5 0 4.6-2 4.6-4.6V94.6l-.5-13.6c-.2-1-.4-2-.7-2.9zM52.4 34.9c2.1-5.3 5.7-7 7.4-7.1 3.9-.3 16-.5 30.8-.5 14.9 0 26.9.2 30.8.5 1.6.1 5.2 1.8 7.4 7.1l6.1 19.8H46.3l6.1-19.8zm-2.2 69.4c-4.2 0-7.7-3.4-7.7-7.7 0-4.2 3.4-7.7 7.7-7.7 4.2 0 7.7 3.4 7.7 7.7 0 4.2-3.4 7.7-7.7 7.7zm58.7-4.9H72.2c-1.9 0-3.4-1.5-3.4-3.4s1.5-3.4 3.4-3.4h36.7c1.9 0 3.4 1.5 3.4 3.4s-1.5 3.4-3.4 3.4zm21.9 4.9c-4.2 0-7.7-3.4-7.7-7.7 0-4.2 3.4-7.7 7.7-7.7 4.2 0 7.7 3.4 7.7 7.7 0 4.2-3.4 7.7-7.7 7.7z" class="st0"/></svg>