<svg xmlns="http://www.w3.org/2000/svg" id="CyclistSign_1_" width="163.3" height="254.4" viewBox="0 0 163.3 254.4"><style>.st0{fill:#b34c30}.st1{fill:#fff}</style><path id="SignPole" d="M68.2 100.3v125.4l19.7 19.1V100.3z"/><g id="SignTop"><path d="M146.1 78.1c0 36.8-29.9 66.6-66.8 66.6s-66.8-29.8-66.8-66.6 29.9-66.6 66.8-66.6 66.8 29.8 66.8 66.6" class="st0"/><path d="M145.4 78.1c0 36.4-29.6 66-66.1 66s-66.1-29.5-66.1-66 29.6-66 66.1-66c36.5.1 66.1 29.6 66.1 66" class="st1"/><path d="M143.4 78.1c0 35.3-28.7 64-64.1 64s-64.1-28.6-64.1-64 28.7-64 64.1-64c35.4 0 64.1 28.7 64.1 64" class="st0"/><path d="M54.2 56s-1.9-1.3-1.7-4c0 0-.4-3.6 4.3-5h9.5v4.8h-7.4s-1.2.6-.3 1.5c0 0 1.9 1.1 2.2 3.5 0 0 .2 1.5-1 4.1h34.1l1.7-4.5-6.9-1.4s-1.6-.4-1.6-1.6c0 0-.2-1.3 1.3-1.8H105s.8 0 .5 1.1c0 0-1.6 4.1-5 3.9l-1.5 4 7.5 12.8v19H93.3s-.3 2.7-3.3 4.9l1.5 3.3h3.3v2.7h-2.3s-.2.8-1.7.8c0 0-1 .1-1.7-.8H87v-2.7h1.9l-1.2-2.4s-4.7 1.7-8.3-2.6c0 0-2.8-2.9-1.3-7.3L56.5 73.2l-2.2 8.4-4.6-1.7 5.8-21.8c0 .1.4-1.2-1.3-2.1" class="st1"/><path d="M63.8 90.7c0 10.4-8.4 18.8-18.9 18.8S26 101.1 26 90.7s8.4-18.8 18.9-18.8 18.9 8.4 18.9 18.8m68.9 0c0 10.4-8.4 18.8-18.9 18.8s-18.9-8.4-18.9-18.8 8.4-18.8 18.9-18.8 18.9 8.4 18.9 18.8" class="st1"/><path d="M90.5 90.7c0 2.7-2.2 5-5 5-2.7 0-5-2.2-5-5 0-2.7 2.2-5 5-5s5 2.2 5 5m-32.4 0c0 7.3-5.9 13.1-13.2 13.1s-13.2-5.9-13.2-13.1c0-7.3 5.9-13.1 13.2-13.1 7.3-.1 13.2 5.8 13.2 13.1m68.9 0c0 7.3-5.9 13.1-13.2 13.1-7.3 0-13.2-5.9-13.2-13.1 0-7.3 5.9-13.1 13.2-13.1 7.3-.1 13.2 5.8 13.2 13.1M58.4 65.6h33.7L86 82.8l-2.6.3-1.2-2.3h2.2v-2.7H82s-.2-.9-1.7-.9c0 0-1.4 0-1.5.9h-2.3v2.7h3.3l1.5 3.2-.5.4-23.2-16.1.8-2.7zm38.5.7l-6.6 18.1s2.8 1.7 2.9 4.5h2s.1-7.8 7.1-13.1l-5.4-9.5z" class="st0"/><path d="M50.1 78.1s-1.1 4.8-1.9 6.2c0 0-1.2 2.6-5 5.4 0 0-1.1 2.7 1.7 3 0 0 4.4 0 7.4-5 0 0 1-1.6 2.2-7.9l-4.4-1.7zm58.1-1.8l7.9 13.9s.6 2.1-1.3 2.3h-16c.1 0-2.2-9.4 9.4-16.2" class="st1"/><path d="M105.2 80.6s-4 2.9-4.7 8.5h9.5l-4.8-8.5z" class="st0"/></g></svg>