<svg xmlns="http://www.w3.org/2000/svg" id="Homes_1_" width="268.9" height="195.6" viewBox="0 0 268.9 195.6"><style>.st0{fill:#533c61}.st1{fill:#b9b0bf}.st2{fill:#fff}.st3{fill:#373e46}</style><path id="Purplehouse" d="M175.4 43.6v22.9L148 45l-73.9 57.5 6.7 9.6 8.9-7.4v80.4h22.4V128h28v57.1H206v-80.4l9 7.4 6.6-9.6-31.1-24.3V43.6z" class="st0"/><path id="Lightpurplehouse" d="M213.9 19.1v18.6l-22.2-17.5-34.1 26.5 14.3 11.1V39.1h21.9v35.7l16.5 12.6h17.8v27.8h-10.8l-1.6 2.3-5.6-4.6v20.9h28.6V68.6l7.3 6 5.3-7.8-25.1-19.7v-28z" class="st1"/><path id="Whitehouse" d="M90.2 51.6v18.6L68.1 52.7 8.2 99.3l5.5 7.8 7.1-6v55.4H39V120h22.7v36.5h22.5v-15.1h-9.4V120h9.4v-6.4l-5.6 4.6-11.7-16.7L102.6 74V51.6z" class="st2"/><path id="Greyhouse" d="M100.1 17.3v16.8l-20-15.7-53.9 41.9 4.9 7 6.3-5.5v10.6L68 48.9 87.6 64V48.9h17.7v22.7l21.6-16.8L111 42.6V17.3z" class="st3"/></svg>