<svg xmlns="http://www.w3.org/2000/svg" xmlns:xlink="http://www.w3.org/1999/xlink" id="Bus_1_" width="294.7" height="216.4" viewBox="0 0 294.7 216.4"><style>.st0{opacity:.6}.st1{fill:#eae5da}.st2{fill:#78777a}.st3{fill:#a82130}.st4{fill:#fff}.st5{clip-path:url(#SVGID_2_);fill:#59595c}.st6{clip-path:url(#SVGID_4_)}.st6,.st7,.st8{fill:#59595c}.st7{clip-path:url(#SVGID_6_)}.st8{clip-path:url(#SVGID_8_)}.st9{clip-path:url(#SVGID_10_);fill:#bfc1c3}.st10{clip-path:url(#SVGID_12_);fill:#898b8e}.st11{clip-path:url(#SVGID_14_);fill:#bfc1c3}.st12{clip-path:url(#SVGID_16_);fill:none;stroke:#fff;stroke-width:.928}.st13{clip-path:url(#SVGID_18_);fill:#898b8e}.st14{clip-path:url(#SVGID_20_);fill:#bfc1c3}.st15{clip-path:url(#SVGID_22_);fill:none;stroke:#fff;stroke-width:.928}.st16{clip-path:url(#SVGID_24_);fill:#fff}</style><g id="BusSide" class="st0"><path d="M96.1 11.9v62.9l166 1.7-.9-25.3L251 16.5z" class="st1"/><path d="M266.9 53c.4 3.7.4 7.5 0 11.3V53z" class="st2"/><path d="M216.5 96.7c3.1 0 5.6-2.7 5.6-6s-2.5-6-5.6-6-5.6 2.7-5.6 6 2.5 6 5.6 6m0-16c5.2 0 9.4 4.5 9.4 10 0 1.3-.2 2.5-.6 3.6-1.4 3.7-4.8 6.4-8.8 6.4s-7.4-2.6-8.8-6.4c-.4-1.1-.6-2.3-.6-3.6 0-5.5 4.2-10 9.4-10" class="st3"/><path d="M216.5 86.6c2.1 0 3.9 1.8 3.9 4.1s-1.7 4.1-3.9 4.1c-2.1 0-3.9-1.8-3.9-4.1 0-2.2 1.8-4.1 3.9-4.1m-80.9 10.1c3.1 0 5.6-2.7 5.6-6s-2.5-6-5.6-6-5.6 2.7-5.6 6 2.5 6 5.6 6m0-16c5.2 0 9.4 4.5 9.4 10 0 1.3-.2 2.5-.6 3.6-1.4 3.7-4.8 6.4-8.8 6.4s-7.4-2.6-8.8-6.4c-.4-1.1-.6-2.3-.6-3.6 0-5.5 4.2-10 9.4-10" class="st3"/><path d="M135.6 86.6c2.1 0 3.9 1.8 3.9 4.1s-1.7 4.1-3.9 4.1-3.9-1.8-3.9-4.1c0-2.2 1.8-4.1 3.9-4.1m-20.2 10.1c3.1 0 5.6-2.7 5.6-6s-2.5-6-5.6-6-5.6 2.7-5.6 6c-.1 3.3 2.4 6 5.6 6m0-16c5.2 0 9.4 4.5 9.4 10 0 1.3-.2 2.5-.6 3.6-1.4 3.7-4.8 6.4-8.8 6.4s-7.4-2.6-8.8-6.4c-.4-1.1-.6-2.3-.6-3.6-.1-5.5 4.1-10 9.4-10" class="st3"/><path d="M115.4 86.6c2.1 0 3.9 1.8 3.9 4.1s-1.7 4.1-3.9 4.1c-2.1 0-3.9-1.8-3.9-4.1 0-2.2 1.7-4.1 3.9-4.1" class="st3"/><path d="M96.9 27.1v4.4c0 .4.3.8.8.8h17.6c.3 0 .6-.3.6-.6V17c0-.3-.2-.5-.4-.6H97.7c-.4 0-.8.4-.8.8v9.9c-.7-.1-1.4-.2-2.1-.2.7.1 1.4.1 2.1.2m.1 46.8c0 .4.3.8.8.8h17.6c.3 0 .6-.3.6-.6V59.5c0-.3-.3-.6-.6-.6H97.8c-.4 0-.8.4-.8.8v14.2zm19.5-42.4c0 .4.3.8.8.8h17.6c.3 0 .6-.3.6-.6V17c0-.3-.3-.6-.6-.6h-17.6c-.2 0-.3.1-.4.1-.2.1-.3.4-.3.7v14.3h-.1zm.1 42.4c0 .4.3.8.8.8H135c.3 0 .6-.3.6-.6V59.5c0-.3-.3-.6-.6-.6h-17.6c-.4 0-.8.4-.8.8v14.2zm19.5-42.2c0 .3.2.6.6.6h17.6c.1 0 .2 0 .3-.1.3-.1.4-.4.4-.7V17.2c0-.4-.3-.8-.8-.8h-17.6c-.3 0-.6.3-.6.6v14.7h.1zm.1 42.4c0 .3.3.6.6.6h17.6c.4 0 .8-.4.8-.8V59.7c0-.4-.3-.8-.8-.8h-17.6c-.3 0-.6.3-.6.6v14.6zm19.5-42.4c0 .3.3.6.6.6H188c.3 0 .6-.3.6-.6V17c0-.3-.3-.6-.6-.6h-31.7c-.3 0-.6.3-.6.6v14.7zm0 34.9V74c0 .4.6.8 1.3.8h30.8c.5 0 1-.3 1-.6V59.5c0-.3-.4-.6-1-.6H157c-.7 0-1.3.4-1.3.8v6.9zm33.6-35.1c0 .4.3.8.8.8h17.6c.3 0 .6-.3.6-.6V17c0-.3-.3-.6-.6-.6H190c-.4 0-.8.4-.8.8v14.3h.1zm.1 42.4c0 .4.3.8.8.8h17.6c.3 0 .6-.3.6-.6V59.5c0-.3-.3-.6-.6-.6h-17.6c-.4 0-.8.4-.8.8v14.2zm19.5-42.2c0 .3.3.6.6.6H227c.4 0 .8-.4.8-.8V17.2c0-.4-.3-.8-.8-.8h-17.6c-.3 0-.6.3-.6.6v14.7h.1zm.1 42.4c0 .3.3.6.6.6h17.6c.4 0 .8-.4.8-.8V59.7c0-.4-.3-.8-.8-.8h-17.6c-.3 0-.6.3-.6.6v14.6zm17.4 5.1c0 .2.2.4.4.4h.9c.1 0 .2-.1.2-.2v-2.3c0-.1-.1-.2-.2-.2h-.9c-.2 0-.4.2-.4.4v1.9zm2.1-47.5c0 .3.3.6.6.6h23.1c.3-.1.5-.4.4-.7-.6-5.1-2-10-4-14.7-.1-.2-.3-.4-.5-.4h-19c-.3 0-.6.3-.6.6v14.6zm.2 43.1c0 .7.5 1.3 1.2 1.3h30.4c.7 0 1.2-.6 1.2-1.3V57.7c0-.7-.5-1.3-1.2-1.3h-30.4c-.7 0-1.2.6-1.2 1.3v17.1zM88 84.8h.5V71h-.1c-.2 0-.3-.1-.3-.3V53.3c0-.2.1-.3.3-.3h.1V16.8c0-.9.1-1.8.3-2.6.3-1 .7-1.9 1.2-2.7 1.7-2.7 4.6-4.6 7.9-4.6h146.9c2 0 3.9 1.1 4.9 3 .3.5.6 1 .8 1.6.3.5.5 1 .8 1.6 4.5 8.8 7.9 18.2 10.3 27.9.3 1.4.7 2.7.9 4.1h4.8c.7 0 1.3.6 1.4 1.3v.2l-.7 6.6c-.1 0-.2-.1-.3-.1h-.1l.7-6.5c0-.5-.4-1-.9-1h-4.7c.3 1.6.7 3.3.9 4.9 1.3 7.6 1.9 15.2 1.9 22.9l.2 1.5h.1l-.3-2.1s.1 0 .1-.1l-.1-.9h.1c.1 0 .2.1.2.2l.1.7s0 .1.1.1c0 0 .1 0 .1.1l.3 2.4c.1.5-.1.9-.5 1.1l1.2 9.3v.1c-1 .1-1.7 1-1.6 2.1l.2 3.7c.1 1.1.9 1.9 2 1.9h.2l.1 1.2v.2c0 .2-.1.4-.3.4h-40.4c.1-.1.1-.1.1-.2.1-.1.2-.3.2-.4.8-2.5.8-5.2 0-7.7-2-6.6-8.7-10.2-15-8.1-6.2 2.1-9.7 9.2-7.6 15.8 0 .1.1.2.1.3 0 .1.1.2.2.3H147l.2-.4.1-.2c1.2-4.5 0-9.3-3.2-12.6-4.8-5-12.4-4.9-17.1.1h-3c-3.2-3.6-8-4.8-12.4-3.3-6.1 2.2-9.4 9.2-7.3 15.7.1.2.2.5.4.6H88.9c-.2 0-.4-.2-.4-.4V92H88c-.2 0-.4-.2-.4-.4v-6.3c0-.3.2-.5.4-.5" class="st3"/></g><g id="BusFront"><path d="M44.3 46.6h124.1v140.9H44.3z" class="st4"/><path d="M167.1 176.5c0 3.8-3 6.9-6.6 6.9h-11.9c-3.6 0-6.6-3.1-6.6-6.9v-2.1c0-3.8 3-6.9 6.6-6.9h11.9c3.6 0 6.6 3.1 6.6 6.9v2.1zm0-36.3c0 2.7-1.5 5-3.7 6.1-1.4-5.7-6.2-10.3-12.5-12 1.9-1.7 3.1-4.2 3.1-7.1 0-5.2-4-9.3-9-9.3s-9 4.2-9 9.3c0 2.9 1.3 5.6 3.3 7.3-6.3 1.9-11 6.7-12 12.5h-13.1c-3.6 0-6.6-3.1-6.6-6.9V85.7c0-3.8 3-6.9 6.6-6.9h46.2c3.6 0 6.6 3.1 6.6 6.9l.1 54.5zM142 64.9c0 3.8-3 6.9-6.6 6.9H76.6c-3.6 0-6.6-3.1-6.6-6.9v-9.6c0-3.8 3-6.9 6.6-6.9h58.7c3.6 0 6.6 3.1 6.6 6.9l.1 9.6zM51.6 78.8h46.2c3.6 0 6.6 3.1 6.6 6.9v54.5c0 3.8-3 6.9-6.6 6.9H51.6c-3.6 0-6.6-3.1-6.6-6.9V85.7c0-3.8 2.9-6.9 6.6-6.9M45 174.5c0-3.8 3-6.9 6.6-6.9h11.9c3.6 0 6.6 3.1 6.6 6.9v2.1c0 3.8-3 6.9-6.6 6.9H51.6c-3.6 0-6.6-3.1-6.6-6.9v-2.1zM86.4 156c0-1.1.9-2.1 2-2.1h35.3c1.1 0 2 .9 2 2.1s-.9 2.1-2 2.1H88.4c-1.1-.1-2-1-2-2.1m0 5.5h39.3v4.1H86.4v-4.1zm110.1-57.3V89.8c0-3.8-1.8-6.9-3.9-6.9h-2.3v-.2c0-3.7-3.7-6.7-8.2-6.8l-7-.2V49.3c0-3.8-3-6.9-6.6-6.9H43.6c-3.6 0-6.6 3.1-6.6 6.9v26.5l-7 .2c-4.5.1-8.2 3.2-8.2 6.8v.2h-2.3c-2.2 0-3.9 3.1-3.9 6.9v14.4c0 3.8 3 6.9 6.6 6.9h2.6c3.6 0 6.6-3.1 6.6-6.9V89.8c0-3.8-1.8-6.9-3.9-6.9h-2.3v-.2c0-1.8 2.3-3.3 5-3.4l7-.1v109.7c0 3.7 2.8 6.7 6.3 6.8v3.4c0 3.8 3 6.9 6.6 6.9h17.2c3.6 0 6.6-3.1 6.6-6.9v-3.4h64.7v3.4c0 3.8 3 6.9 6.6 6.9h17.2c3.6 0 6.6-3.1 6.6-6.9v-3.4c3.5-.2 6.3-3.2 6.3-6.8V79.2l7 .1c2.7.1 5 1.6 5 3.4v.2H185c-2.2 0-3.9 3.1-3.9 6.9v14.4c0 3.8 3 6.9 6.6 6.9h2.6c3.2 0 6.2-3.1 6.2-6.9" class="st3"/></g><defs><path id="SVGID_1_" d="M247.6 102c-.8.1-1.8.4-2.7.8l-79 32.8c-4.6 1.9-5.9 5-4 9.6l18.5 44.6c1.5 3.6 3.7 5.1 6.8 4.7h.1c.3 0 .7-.1 1-.2l82.4-34.2c2.4-1.4 3.5-3.4 3.1-6v-.1c-.1-.8-.4-1.7-.8-2.7l-18.5-44.6c-1.6-3.5-3.8-5.1-6.9-4.7z"/></defs><clipPath id="SVGID_2_"><use overflow="visible" xlink:href="#SVGID_1_"/></clipPath><path d="M276.3 144.7l-94.7 60.7 1.6 3.9 99.9-48.1z" class="st5"/><defs><path id="SVGID_3_" d="M247.6 102c-.8.1-1.8.4-2.7.8l-79 32.8c-4.6 1.9-5.9 5-4 9.6l18.5 44.6c1.5 3.6 3.7 5.1 6.8 4.7h.1c.3 0 .7-.1 1-.2l82.4-34.2c2.4-1.4 3.5-3.4 3.1-6v-.1c-.1-.8-.4-1.7-.8-2.7l-18.5-44.6c-1.6-3.5-3.8-5.1-6.9-4.7z"/></defs><clipPath id="SVGID_4_"><use overflow="visible" xlink:href="#SVGID_3_"/></clipPath><path d="M181.9 206l94.6-60.7-3-7.2L179 199z" class="st6"/><defs><path id="SVGID_5_" d="M247.6 102c-.8.1-1.8.4-2.7.8l-79 32.8c-4.6 1.9-5.9 5-4 9.6l18.5 44.6c1.5 3.6 3.7 5.1 6.8 4.7h.1c.3 0 .7-.1 1-.2l82.4-34.2c2.4-1.4 3.5-3.4 3.1-6v-.1c-.1-.8-.4-1.7-.8-2.7l-18.5-44.6c-1.6-3.5-3.8-5.1-6.9-4.7z"/></defs><clipPath id="SVGID_6_"><use overflow="visible" xlink:href="#SVGID_5_"/></clipPath><path d="M159.3 151.6l94.6-60.8-1.1-2.6L151 131.5z" class="st7"/><defs><path id="SVGID_7_" d="M247.6 102c-.8.1-1.8.4-2.7.8l-79 32.8c-4.6 1.9-5.9 5-4 9.6l18.5 44.6c1.5 3.6 3.7 5.1 6.8 4.7h.1c.3 0 .7-.1 1-.2l82.4-34.2c2.4-1.4 3.5-3.4 3.1-6v-.1c-.1-.8-.4-1.7-.8-2.7l-18.5-44.6c-1.6-3.5-3.8-5.1-6.9-4.7z"/></defs><clipPath id="SVGID_8_"><use overflow="visible" xlink:href="#SVGID_7_"/></clipPath><path d="M253.7 90.2L159 151l3 7.2 94.6-60.9z" class="st8"/><defs><path id="SVGID_9_" d="M247.6 102c-.8.1-1.8.4-2.7.8l-79 32.8c-4.6 1.9-5.9 5-4 9.6l18.5 44.6c1.5 3.6 3.7 5.1 6.8 4.7h.1c.3 0 .7-.1 1-.2l82.4-34.2c2.4-1.4 3.5-3.4 3.1-6v-.1c-.1-.8-.4-1.7-.8-2.7l-18.5-44.6c-1.6-3.5-3.8-5.1-6.9-4.7z"/></defs><clipPath id="SVGID_10_"><use overflow="visible" xlink:href="#SVGID_9_"/></clipPath><path d="M178.7 198.4l-17.6-42.5 95.2-59.3 17.7 42.5z" class="st9"/><defs><path id="SVGID_11_" d="M247.6 102c-.8.1-1.8.4-2.7.8l-79 32.8c-4.6 1.9-5.9 5-4 9.6l18.5 44.6c1.5 3.6 3.7 5.1 6.8 4.7h.1c.3 0 .7-.1 1-.2l82.4-34.2c2.4-1.4 3.5-3.4 3.1-6v-.1c-.1-.8-.4-1.7-.8-2.7l-18.5-44.6c-1.6-3.5-3.8-5.1-6.9-4.7z"/></defs><clipPath id="SVGID_12_"><use overflow="visible" xlink:href="#SVGID_11_"/></clipPath><path d="M180.3 202.3l-2.6-6.2 94.6-61 2.6 6.2z" class="st10"/><defs><path id="SVGID_13_" d="M247.6 102c-.8.1-1.8.4-2.7.8l-79 32.8c-4.6 1.9-5.9 5-4 9.6l18.5 44.6c1.5 3.6 3.7 5.1 6.8 4.7h.1c.3 0 .7-.1 1-.2l82.4-34.2c2.4-1.4 3.5-3.4 3.1-6v-.1c-.1-.8-.4-1.7-.8-2.7l-18.5-44.6c-1.6-3.5-3.8-5.1-6.9-4.7z"/></defs><clipPath id="SVGID_14_"><use overflow="visible" xlink:href="#SVGID_13_"/></clipPath><path d="M182.5 207.5l-1.4-3.3 94.6-61 1.3 3.2z" class="st11"/><defs><path id="SVGID_15_" d="M247.6 102c-.8.1-1.8.4-2.7.8l-79 32.8c-4.6 1.9-5.9 5-4 9.6l18.5 44.6c1.5 3.6 3.7 5.1 6.8 4.7h.1c.3 0 .7-.1 1-.2l82.4-34.2c2.4-1.4 3.5-3.4 3.1-6v-.1c-.1-.8-.4-1.7-.8-2.7l-18.5-44.6c-1.6-3.5-3.8-5.1-6.9-4.7z"/></defs><clipPath id="SVGID_16_"><use overflow="visible" xlink:href="#SVGID_15_"/></clipPath><path d="M270.8 131.4l-94.6 61.1" class="st12"/><defs><path id="SVGID_17_" d="M247.6 102c-.8.1-1.8.4-2.7.8l-79 32.8c-4.6 1.9-5.9 5-4 9.6l18.5 44.6c1.5 3.6 3.7 5.1 6.8 4.7h.1c.3 0 .7-.1 1-.2l82.4-34.2c2.4-1.4 3.5-3.4 3.1-6v-.1c-.1-.8-.4-1.7-.8-2.7l-18.5-44.6c-1.6-3.5-3.8-5.1-6.9-4.7z"/></defs><clipPath id="SVGID_18_"><use overflow="visible" xlink:href="#SVGID_17_"/></clipPath><path d="M255.1 93.7l2.6 6.2-94.6 61-2.5-6.2z" class="st13"/><defs><path id="SVGID_19_" d="M247.6 102c-.8.1-1.8.4-2.7.8l-79 32.8c-4.6 1.9-5.9 5-4 9.6l18.5 44.6c1.5 3.6 3.7 5.1 6.8 4.7h.1c.3 0 .7-.1 1-.2l82.4-34.2c2.4-1.4 3.5-3.4 3.1-6v-.1c-.1-.8-.4-1.7-.8-2.7l-18.5-44.6c-1.6-3.5-3.8-5.1-6.9-4.7z"/></defs><clipPath id="SVGID_20_"><use overflow="visible" xlink:href="#SVGID_19_"/></clipPath><path d="M253 88.5l1.3 3.2-94.5 61-1.4-3.2z" class="st14"/><defs><path id="SVGID_21_" d="M247.6 102c-.8.1-1.8.4-2.7.8l-79 32.8c-4.6 1.9-5.9 5-4 9.6l18.5 44.6c1.5 3.6 3.7 5.1 6.8 4.7h.1c.3 0 .7-.1 1-.2l82.4-34.2c2.4-1.4 3.5-3.4 3.1-6v-.1c-.1-.8-.4-1.7-.8-2.7l-18.5-44.6c-1.6-3.5-3.8-5.1-6.9-4.7z"/></defs><clipPath id="SVGID_22_"><use overflow="visible" xlink:href="#SVGID_21_"/></clipPath><path d="M164.6 164.5l94.6-61.1" class="st15"/><defs><path id="SVGID_23_" d="M247.6 102c-.8.1-1.8.4-2.7.8l-79 32.8c-4.6 1.9-5.9 5-4 9.6l18.5 44.6c1.5 3.6 3.7 5.1 6.8 4.7h.1c.3 0 .7-.1 1-.2l82.4-34.2c2.4-1.4 3.5-3.4 3.1-6v-.1c-.1-.8-.4-1.7-.8-2.7l-18.5-44.6c-1.6-3.5-3.8-5.1-6.9-4.7z"/></defs><clipPath id="SVGID_24_"><use overflow="visible" xlink:href="#SVGID_23_"/></clipPath><path d="M232.8 130.1l-14.4 9.3.6 1.4 14.4-9.3 3.9 9.6-14.3 9.2.6 1.4 14.4-9.3c.6-.5.9-1.4.7-2.1l-4-9.8c-.3-.7-1.2-.9-1.9-.4m-3.2 9.9c-.5-1.3-.2-2.2.6-2.7 1-.7 1.8 0 2.2.9s.4 2.1-.6 2.7c-1.1.7-1.8 0-2.2-.9m4.2-2.7c-.7-1.6-2.3-2.4-4-1.2-1.7 1.1-2.2 3.2-1.5 4.8s2.3 2.4 4.1 1.2c1.6-1.1 2-3.1 1.4-4.8m-7.9 8.2c.1.2.3.3.6.2l.6-.4c.2-.1.3-.4.2-.6l-1.8-4.2 1.3-.8c.2-.2.3-.4.2-.6l-.1-.3c-.1-.2-.3-.3-.5-.2l-3.8 2.5c-.2.1-.3.4-.2.7l.1.3c.1.2.3.3.5.2l1.3-.8 1.6 4zm-22.1 10c.2.4.1 1-.5 1.4l-1.2.7-.7-1.8 1.1-.7c.7-.3 1.1-.2 1.3.4m-3.8 0c-.2.1-.3.4-.2.7l2 4.9c.1.2.3.3.6.1l.6-.4c.2-.1.3-.4.2-.6l-.6-1.5 1.1-.7c1.9-1.2 1.8-2.7 1.5-3.4-.5-1.1-1.4-1.6-2.8-.6l-2.4 1.5zm23.1-10c-.5-1.1-1.5-.9-2.7-.3l-.6.2c-.6.2-.9.3-1-.1-.2-.4.2-.9.5-1.1.4-.3.9-.4 1.4-.3.2.1.4 0 .6-.2l.3-.7c.1-.2 0-.5-.2-.6-.8-.2-1.7.1-2.5.6-1.2.8-2 2-1.4 3.4.4.8 1.1 1.1 2.2.6l1.2-.5c.4-.2.7-.2.8.1.2.5-.4 1.1-.7 1.3-.5.3-1 .4-1.5.4h-.2c-.2 0-.3.1-.4.3l-.3.6c-.1.2 0 .5.2.6.9.2 1.7 0 2.5-.5 1.2-.8 2.5-2.1 1.8-3.8m-26.2 9.6l20.8-13.4-.6-1.4-20.8 13.4c-.7.5-1 1.4-.7 2.2l4 9.6c.3.8 1.2 1 1.9.5l20.9-13.5-.6-1.4-20.8 13.4-4.1-9.4zm12.2-2.2l-1.3.8-.6-1.5 1.3-.8c.4-.3.8-.2 1.1.3.1.5-.1 1-.5 1.2m1.8-2c-.5-1.3-1.5-1.4-2.8-.6l-2.3 1.5c-.2.1-.3.4-.2.7l2.1 4.9c.1.2.3.3.6.1l.6-.4c.2-.1.3-.4.2-.6l-.7-1.7.9-.6 1.5 1.1c.2.2.4.3.6.1l.9-.6c.2-.1.2-.3 0-.5l-1.9-1.3c.6-.5.8-1.4.5-2.1m4.8-4.1c.2-.1.3-.4.2-.6l-.1-.3c-.1-.2-.3-.3-.6-.1l-3.5 2.2c-.2.1-.3.4-.2.6l2.1 5c.1.2.3.3.6.1l3.5-2.2c.2-.1.3-.4.2-.7l-.1-.3c-.1-.2-.3-.3-.6-.1l-2.5 1.6-.5-1.2 2.1-1.3c.2-.1.3-.4.2-.7l-.1-.3c-.1-.2-.3-.3-.6-.2l-2.1 1.4-.5-1.2 2.5-1.7z" class="st16"/></svg>