<svg xmlns="http://www.w3.org/2000/svg" id="Paramedics_1_" width="387.7" height="193.7" viewBox="0 0 387.7 193.7"><style>.st0{fill:#fff}.st1{fill:#533c61}.st2{fill:#373e46}</style><path id="Paramedic5" d="M133 58.1c8.2 0 14.8-6.7 14.8-14.9s-6.6-14.9-14.8-14.9-14.9 6.7-14.9 14.9c0 8.3 6.7 14.9 14.9 14.9zm42.4 5.3c-2-3-5.8-3.9-8.5-2.1l-16.1 11.5L132.7 62c-.1 0-.1-.1-.2-.1l-4.2-1.8h-.1l-10.5-1.8c-.8-.1-1.5-.2-2.3-.1-1-.1-2 .1-2.9.5L70.7 77.9l-1-1.9c-1.1-2.1-3.8-2.9-5.8-1.7l-4.1 2.2-3.4-6.3c-1.3-2.5-4.4-3.4-6.8-2l-23 12.5c-2.4 1.3-3.3 4.4-2 6.8l20 37c1.3 2.4 4.4 3.4 6.8 2l23-12.5c2.4-1.3 3.3-4.4 2-6.8l-3.4-6.3 4.1-2.2c2.1-1.1 2.9-3.8 1.7-5.9l-1.9-3.6 28.2-13-4.1 27.1-12 22.4H64.8c-3.9 0-7 3.2-7 7.1 0 3.9 3.2 7.1 7 7.1h27.8c2.8.1 5.6-1.4 7-4.1l11-20.6 3.5.6c.5.7 1.1 1.4 1.9 2l21.7 17.8-9.3 24.6c-1.6 4.9-.6 8.4 3.7 9.8 4.7 1.5 8.1-.2 9.8-5.4l10.6-28.1c.4-1.1.5-2.2.4-3.3.2-2.1-.9-4.2-3.2-6.1L130.1 111c.3-.7.5-1.5.6-2.3l4.6-30 12.7 7.6c.1.1.2.1.3.1s.2.1.3.1c1.8.9 4 .8 5.7-.4l19.7-14c2.7-1.8 3.4-5.7 1.4-8.7zM56.9 104.7l-5.3 2.8-3.1-5.8-5.8 3.1-2.8-5.3 5.8-3.1-3.1-5.8 5.3-2.8 3.1 5.8 5.8-3.1 2.8 5.3-5.8 3.1 3.1 5.8zm18.2-9.6L71 97.4l-9.3-17.2 4.1-2.2c.1-.1.3 0 .3.1l1.2 2.2c-1.3 1.8-1.6 4.3-.6 6.6 1.2 2.5 3.7 4 6.2 3.8l2.2 4.1c.2.1.1.3 0 .3z" class="st0"/><path id="Paramedic4" d="M175.7 58.1c8.2 0 14.8-6.7 14.8-14.9s-6.6-14.9-14.8-14.9-14.9 6.7-14.9 14.9c.1 8.3 6.7 14.9 14.9 14.9zm42.5 5.3c-2-3-5.8-3.9-8.5-2.1l-16.1 11.5L175.4 62c-.1 0-.1-.1-.2-.1l-4.2-1.8h-.1l-10.5-1.8c-.8-.1-1.5-.2-2.3-.1-1-.1-2 .1-2.9.5L113.5 78l-1-1.9c-1.1-2.1-3.8-2.9-5.8-1.7l-4.1 2.2-3.4-6.3c-1.3-2.5-4.4-3.4-6.8-2l-23 12.5c-2.4 1.3-3.3 4.4-2 6.8l20 37c1.3 2.4 4.4 3.4 6.8 2l23-12.5c2.4-1.3 3.3-4.4 2-6.8l-3.4-6.3 4.1-2.2c2.1-1.1 2.9-3.8 1.7-5.9l-1.9-3.6 28.2-13-4.1 27.1-11.9 22.3h-24.2c-3.9 0-7 3.2-7 7.1 0 3.9 3.2 7.1 7 7.1h27.8c2.8.1 5.6-1.4 7-4.1l11-20.6 3.5.6c.5.7 1.1 1.4 1.9 2l21.7 17.8-9.3 24.6c-1.6 4.9-.6 8.4 3.7 9.8 4.7 1.5 8.1-.2 9.8-5.4l10.6-28.1c.4-1.1.5-2.2.4-3.3.2-2.1-.9-4.2-3.2-6.1L173 111c.3-.7.5-1.5.6-2.3l4.6-30 12.7 7.6c.1.1.2.1.3.1s.2.1.3.1c1.8.9 4 .8 5.7-.4L216.9 72c2.6-1.7 3.3-5.6 1.3-8.6zM99.6 104.7l-5.3 2.8-3.1-5.8-5.8 3.1-2.8-5.3 5.8-3.1-3.1-5.8 5.3-2.8 3.1 5.8 5.8-3.1 2.8 5.3-5.8 3.1 3.1 5.8zm18.3-9.6l-4.1 2.2-9.3-17.2 4.1-2.2c.1-.1.3 0 .3.1l1.2 2.2c-1.3 1.8-1.6 4.3-.6 6.6 1.2 2.5 3.7 4 6.2 3.8l2.2 4.1c.1.2.1.4 0 .4z" class="st0"/><path id="Paramedic3" d="M207.8 58.1c8.2 0 14.8-6.7 14.8-14.9s-6.6-14.9-14.8-14.9-14.9 6.7-14.9 14.9c0 8.3 6.7 14.9 14.9 14.9zm42.4 5.3c-2-3-5.8-3.9-8.5-2.1l-16.1 11.5L207.5 62c-.1 0-.1-.1-.2-.1l-4.2-1.8h-.1l-10.5-1.8c-.8-.1-1.5-.2-2.3-.1-1-.1-2 .1-2.9.5L145.6 78l-1-1.9c-1.1-2.1-3.8-2.9-5.8-1.7l-4.1 2.2-3.4-6.3c-1.3-2.5-4.4-3.4-6.8-2l-23 12.5c-2.4 1.3-3.3 4.4-2 6.8l20 37c1.3 2.4 4.4 3.4 6.8 2l23-12.5c2.4-1.3 3.3-4.4 2-6.8l-3.4-6.3 4.1-2.2c2.1-1.1 2.9-3.8 1.7-5.9l-1.9-3.6 28.2-13-4.1 27.1-11.9 22.3h-24.2c-3.9 0-7 3.2-7 7.1 0 3.9 3.2 7.1 7 7.1h27.8c2.8.1 5.6-1.4 7-4.1l11-20.6 3.5.6c.5.7 1.1 1.4 1.9 2l21.7 17.8-9.3 24.6c-1.6 4.9-.6 8.4 3.7 9.8 4.7 1.5 8.1-.2 9.8-5.4l10.6-28.1c.4-1.1.5-2.2.4-3.3.2-2.1-.9-4.2-3.2-6.1L205.1 111c.3-.7.5-1.5.6-2.3l4.6-30 12.7 7.6c.1.1.2.1.3.1s.2.1.3.1c1.8.9 4 .8 5.7-.4L249 72c2.5-1.7 3.2-5.6 1.2-8.6zm-118.6 41.3l-5.3 2.8-3.1-5.8-5.8 3.1-2.8-5.3 5.8-3.1-3.1-5.8 5.3-2.8 3.1 5.8 5.8-3.1 2.8 5.3-5.8 3.1 3.1 5.8zm18.3-9.6l-4.1 2.2-9.3-17.2 4.1-2.2c.1-.1.3 0 .3.1l1.2 2.2c-1.3 1.8-1.6 4.3-.6 6.6 1.2 2.5 3.7 4 6.2 3.8l2.2 4.1c.2.2.1.4 0 .4z" class="st1"/><path id="Paramedic2" d="M252.1 58.1c8.2 0 14.8-6.7 14.8-14.9s-6.6-14.9-14.8-14.9-14.9 6.7-14.9 14.9c0 8.3 6.6 14.9 14.9 14.9zm42.4 5.3c-2-3-5.8-3.9-8.5-2.1l-16.1 11.5L251.7 62c-.1 0-.1-.1-.2-.1l-4.2-1.8h-.1l-10.5-1.8c-.8-.1-1.5-.2-2.3-.1-1-.1-2 .1-2.9.5L189.8 78l-1-1.9c-1.1-2.1-3.8-2.9-5.8-1.7l-4.1 2.2-3.4-6.3c-1.3-2.5-4.4-3.4-6.8-2l-23 12.5c-2.4 1.3-3.3 4.4-2 6.8l20 37c1.3 2.4 4.4 3.4 6.8 2l23-12.5c2.4-1.3 3.3-4.4 2-6.8L192 101l4.1-2.2c2.1-1.1 2.9-3.8 1.7-5.9l-1.9-3.6 28.2-13-4.1 27.1-11.9 22.3h-24.2c-3.9 0-7 3.2-7 7.1 0 3.9 3.2 7.1 7 7.1h27.8c2.8.1 5.6-1.4 7-4.1l11-20.6 3.5.6c.5.7 1.1 1.4 1.9 2l21.7 17.8-9.3 24.6c-1.6 4.9-.6 8.4 3.7 9.8 4.7 1.5 8.1-.2 9.8-5.4l10.6-28.1c.4-1.1.5-2.2.4-3.3.2-2.1-.9-4.2-3.2-6.1L249.2 111c.3-.7.5-1.5.6-2.3l4.6-30 12.7 7.6c.1.1.2.1.3.1.1 0 .2.1.3.1 1.8.9 4 .8 5.7-.4L293.1 72c2.7-1.7 3.4-5.6 1.4-8.6zm-118.6 41.3l-5.3 2.8-3.1-5.8-5.8 3.1-2.8-5.3 5.8-3.1-3.1-5.8 5.3-2.8 3.1 5.8 5.8-3.1 2.8 5.3-5.8 3.1 3.1 5.8zm18.3-9.6l-4.1 2.2-9.3-17.2 4.1-2.2c.1-.1.3 0 .3.1l1.2 2.2c-1.3 1.8-1.6 4.3-.6 6.6 1.2 2.5 3.7 4 6.2 3.8l2.2 4.1c.2.2.1.4 0 .4z" class="st0"/><path id="Paramedic1" d="M308.5 58.1c8.2 0 14.8-6.7 14.8-14.9s-6.6-14.9-14.8-14.9c-8.2 0-14.9 6.7-14.9 14.9 0 8.3 6.7 14.9 14.9 14.9zm42.4 5.3c-2-3-5.8-3.9-8.5-2.1l-16.1 11.5L308.2 62c-.1 0-.1-.1-.2-.1l-4.2-1.8h-.1l-10.5-1.8c-.8-.1-1.5-.2-2.3-.1-1-.1-2 .1-2.9.5L246.3 78l-1-1.9c-1.1-2.1-3.8-2.9-5.8-1.7l-4.1 2.2-3.4-6.3c-1.3-2.5-4.4-3.4-6.8-2l-23 12.5c-2.4 1.3-3.3 4.4-2 6.8l20 37c1.3 2.4 4.4 3.4 6.8 2l23-12.5c2.4-1.3 3.3-4.4 2-6.8l-3.4-6.3 4.1-2.2c2.1-1.1 2.9-3.8 1.7-5.9l-1.9-3.6 28.2-13-4.1 27.1-11.9 22.3h-24.2c-3.9 0-7 3.2-7 7.1 0 3.9 3.2 7.1 7 7.1h27.8c2.8.1 5.6-1.4 7-4.1l11-20.6 3.5.6c.5.7 1.1 1.4 1.9 2l21.7 17.8-9.3 24.6c-1.6 4.9-.6 8.4 3.7 9.8 4.7 1.5 8.1-.2 9.8-5.4l10.6-28.1c.4-1.1.5-2.2.4-3.3.2-2.1-.9-4.2-3.2-6.1L305.8 111c.3-.7.5-1.5.6-2.3l4.6-30 12.7 7.6c.1.1.2.1.3.1.1 0 .2.1.3.1 1.8.9 4 .8 5.7-.4L349.7 72c2.5-1.7 3.2-5.6 1.2-8.6zm-118.5 41.3l-5.3 2.8-3.1-5.8-5.8 3.1-2.8-5.3 5.8-3.1-3.1-5.8 5.3-2.8 3.1 5.8 5.8-3.1 2.8 5.3-5.8 3.1 3.1 5.8zm18.2-9.6l-4.1 2.2-9.3-17.2 4.1-2.2c.1-.1.3 0 .3.1l1.2 2.2c-1.3 1.8-1.6 4.3-.6 6.6 1.2 2.5 3.7 4 6.2 3.8l2.2 4.1c.2.2.1.4 0 .4z" class="st2"/></svg>