<svg xmlns="http://www.w3.org/2000/svg" id="Park_1_" width="454.4" height="308.7" viewBox="0 0 454.4 308.7"><style>.st0{fill:#fff}.st1{opacity:.49}.st2{fill:#533c61}.st3{opacity:.7}.st4{opacity:.6}.st5{fill:#373e46}</style><path id="Bush" d="M418.7 226.3c6.7 6.1 10.9 14.9 10.9 24.5 0 18.4-15.3 33.4-33.9 33.4h-82c-18.7 0-33.9-15-33.9-33.4 0-15.2 10.5-28.1 24.7-32.1 1.5-9 9.5-15.9 19.1-15.9 1.9 0 3.7.3 5.4.8 6-13.2 19.5-22.3 35.1-22.3 18 0 33.1 12.2 37.3 28.7 1.2-.3 2.4-.5 3.7-.5 7.8 0 14 6.2 14 13.9-.2.9-.3 1.9-.4 2.9" class="st0"/><g id="Bench" class="st1"><path d="M47.1 227.3v24.9c0 1.4-1.3 2.6-2.9 2.6-1.6 0-2.9-1.2-2.9-2.6v-24.9h5.8zm93.1 0v24.9c0 1.4-1.3 2.6-2.9 2.6-1.6 0-2.9-1.2-2.9-2.6v-24.9h5.8zm-104.4 0v28.5c0 1.8-1.7 3.3-3.7 3.3s-3.6-1.5-3.6-3.3v-28.5h7.3zm117.2 0v28.5c0 1.8-1.7 3.3-3.7 3.3s-3.6-1.5-3.6-3.3v-28.5h7.3zM28.4 205.5h124.7v8.1H28.4zm0-9.6h124.7v8.1H28.4zm0-9.7h124.7v8.1H28.4zm6.3-10.4h112c3.5 0 6.3 2.8 6.3 6.3v2.6H28.4v-2.6c0-3.5 2.9-6.3 6.3-6.3m-13 50.3h138c1.7 0 3-1.3 3-3v-4.9c0-1.6-1.3-3-3-3h-138c-1.7 0-3 1.3-3 3v4.9c0 1.6 1.4 3 3 3" class="st2"/></g><path id="Ball" d="M351.8 223.8c6.4-1.9 13.1 2 14.9 8.6s-1.9 13.6-8.3 15.4c-6.4 1.9-13.1-2-14.9-8.6-1.9-6.6 1.9-13.5 8.3-15.4" class="st2"/><g id="Tree2" class="st3"><path d="M180.1 146.4v19.9l9.8-19.9h3l-12.8 25.9v20.9l31-46.8h4.7l-35.7 53.9v70.9h-11.3v-34.3l-11.7-21.4c-.4-.8-.1-1.8.7-2.3.8-.4 1.9-.1 2.3.7l8.7 15.9v-26.2l-28.2-57.3h3l25.3 51.3v-51.3h11.2v.1zm63.1-69.5c7.9 7.1 12.8 17.3 12.8 28.5 0 21.4-18 39-39.9 39h-96.4c-22 0-39.9-17.5-39.9-39 0-17.7 12.3-32.8 29-37.5 1.8-10.5 11.2-18.5 22.4-18.5 2.2 0 4.4.3 6.4.9 7.1-15.4 22.9-26 41.3-26 21.2 0 38.9 14.2 43.8 33.4 1.4-.3 2.8-.5 4.4-.5 9.1 0 16.5 7.2 16.5 16.2-.1 1.2-.2 2.4-.4 3.5" class="st0"/></g><path id="Tree3" d="M254.6 146.4v19.9l9.8-19.9h3l-12.8 25.9v20.9l31-46.8h4.7l-35.7 53.9v70.9h-11.3v-34.3l-11.7-21.4c-.4-.8-.1-1.8.7-2.3.8-.4 1.9-.1 2.3.7l8.7 15.9v-26.2l-28.2-57.3h3l25.3 51.3v-51.3h11.2v.1zm63-69.5c7.9 7.1 12.8 17.3 12.8 28.5 0 21.4-18 39-39.9 39h-96.4c-22 0-39.9-17.5-39.9-39 0-17.7 12.3-32.8 29-37.5 1.8-10.5 11.2-18.5 22.4-18.5 2.2 0 4.3.3 6.4.9 7.1-15.4 22.9-26 41.3-26 21.2 0 38.9 14.2 43.8 33.4 1.4-.3 2.8-.5 4.4-.5 9.1 0 16.5 7.2 16.5 16.2 0 1.2-.2 2.4-.4 3.5" class="st0"/><g id="Tree1" class="st4"><path d="M126.3 146.4v19.9l9.8-19.9h3l-12.8 25.9v20.9l31-46.8h4.7l-35.7 53.9v70.9H115v-34.3l-11.7-21.4c-.4-.8-.1-1.8.7-2.3.8-.4 1.9-.1 2.3.7l8.7 15.9v-26.2l-28.2-57.3h3l25.3 51.3v-51.3h11.2v.1zm63-69.5c7.9 7.1 12.8 17.3 12.8 28.5 0 21.4-18 39-39.9 39H65.8c-22 0-39.9-17.5-39.9-39 0-17.7 12.3-32.8 29-37.5 1.8-10.5 11.2-18.5 22.4-18.5 2.2 0 4.3.3 6.4.9 7.1-15.4 22.9-26 41.3-26 21.2 0 38.9 14.2 43.8 33.4 1.4-.3 2.8-.5 4.4-.5 9.1 0 16.5 7.2 16.5 16.2 0 1.2-.2 2.4-.4 3.5" class="st0"/></g><g id="Person"><path d="M316.1 172c6 1.8 12.3-1.9 14-8.1 1.7-6.3-1.8-12.8-7.8-14.5-6-1.8-12.3 1.9-14 8.1-1.8 6.2 1.8 12.7 7.8 14.5" class="st5"/><path d="M363.4 172.2c-2.1-1.7-5.2-1.6-7.4.2-5.4 4.9-14.6 8.1-23.4 8.1-3.6 0-6.8-.5-9.7-1.6-.5-.2-1.1-.3-1.6-.3-.3-.1-.6-.3-.9-.4l-11.2-3.3c-.2-.1-.4-.1-.6-.1-.5-.2-1-.4-1.6-.6-4-1.1-8.4-1.4-13.2-1-11.3 1-22.8 6.3-29.2 13.4-1.3 1.3-2 3-1.8 4.7.1 1.4.8 2.6 1.9 3.3 2.2 1.5 5.3 1.2 7.4-.9 5-5.4 13.9-9.4 22.6-10.1 1.8-.2 3.6-.2 5.3 0l-11.4 41.7h.1c-9.2 13.7-24.8 34.4-35.5 41-2.5 1.6-3.4 4.7-2.2 7.4 1.2 2.7 4.2 4.1 6.9 2.8 12.6-6.3 33.6-29.7 43.7-42.3.1-.1.1-.1.1-.2 11.2 8.3 17.1 31.4 11.4 45.7-1.3 3.9-.5 7.5 2 8.9.6.4 1.3.5 2 .5 2.5 0 5-2.1 6.3-5.1 7.9-16.9 3.2-44.9-9.4-58l10-36c2.7.6 5.6.9 8.6.9 11.3 0 23.2-4.2 30.3-10.8 1.4-1.2 2.2-2.8 2.2-4.5 0-1.3-.6-2.6-1.7-3.4" class="st5"/></g></svg>