<svg xmlns="http://www.w3.org/2000/svg" id="Pipe_1_" width="502.7" height="231" viewBox="0 0 502.7 231"><style>.st0{fill:#333}</style><g id="Pipe"><path d="M65 135.2c-2.7-18.9-15.2-77.6-34-74.9-10 1.4-16.6 35.2-10 81.3s22.4 76.6 32.5 75.1c18.7-2.7 14.2-62.6 11.5-81.5zm-15.2 56.3c-5.7.8-13.7-22.2-17.9-51.5-1.3-9.1-6-53.2 2.8-54.5 5.8-.9 13.8 23.1 17.9 51.5 2 14.1 5.1 53.4-2.8 54.5zm96.8-68c-2.4-17-9.2-47.3-20.2-59.6-1.7-1.9-4.3-4.2-6.6-3.9l-53.4 7.7c10.1 18 16.4 44.2 19.3 64.6 2.9 20.3 4.3 47.3-.4 67.4l53.4-7.7c2.3-.3 4.1-3.2 5.3-5.6 6.8-14.5 5.2-44.8 2.6-62.9z" class="st0"/><path d="M55.9 63c-3.1-3.6-6.1-5.3-8.7-5l-7.6 1.1c15.6 12.6 25.1 53.1 28.4 75.7 3 21.2 5.7 63.7-6 80.7l7.6-1.1c2.6-.4 5-2.9 6.9-7.2 8.1-18.5 6.1-52.9 3.1-74-3.1-21.6-10.9-54.9-23.7-70.2zm404.4-45.2L130.9 64.6c9.9 14.3 16.2 40.6 18.8 58.4 2.5 17.6 3.9 44.7-1.6 61.4l329.4-46.8c6.6-1 12.5-25.1 7.2-62.2-5.4-37.1-17.9-58.6-24.4-57.6z" class="st0"/></g></svg>