<svg xmlns="http://www.w3.org/2000/svg" xmlns:xlink="http://www.w3.org/1999/xlink" id="PrestoCard_1_" width="256.7" height="172.1" viewBox="0 0 256.7 172.1"><style>.st0{clip-path:url(#SVGID_2_);fill:#59595c}.st1{clip-path:url(#SVGID_4_)}.st1,.st2,.st3{fill:#59595c}.st2{clip-path:url(#SVGID_6_)}.st3{clip-path:url(#SVGID_8_)}.st4{clip-path:url(#SVGID_10_);fill:#bfc1c3}.st5{clip-path:url(#SVGID_12_);fill:#898b8e}.st6{clip-path:url(#SVGID_14_);fill:#bfc1c3}.st7{clip-path:url(#SVGID_16_);fill:none;stroke:#fff;stroke-width:.928}.st8{clip-path:url(#SVGID_18_);fill:#898b8e}.st9{clip-path:url(#SVGID_20_);fill:#bfc1c3}.st10{clip-path:url(#SVGID_22_);fill:none;stroke:#fff;stroke-width:.928}.st11{clip-path:url(#SVGID_24_);fill:#fff}</style><defs><path id="SVGID_1_" d="M231.3 15.4c-1.9-.5-4-.7-6.4-.7l-192.6 1c-11.2.1-16.5 5.4-16.4 16.6l.6 108.8c0 8.7 3.3 13.9 10.1 15.7h.2c.7.2 1.5.3 2.3.4l200.8-1.1c6.3-.9 10.1-4.2 11.6-9.8l.1-.2c.5-1.8.7-3.9.7-6.3L241.7 31c0-8.7-3.3-13.9-10.1-15.7l-.3.1z"/></defs><clipPath id="SVGID_2_"><use overflow="visible" xlink:href="#SVGID_1_"/></clipPath><path d="M254.8 128.8l-249.1 46 .1 9.5L255 169.1z" class="st0"/><defs><path id="SVGID_3_" d="M231.3 15.4c-1.9-.5-4-.7-6.4-.7l-192.6 1c-11.2.1-16.5 5.4-16.4 16.6l.6 108.8c0 8.7 3.3 13.9 10.1 15.7h.2c.7.2 1.5.3 2.3.4l200.8-1.1c6.3-.9 10.1-4.2 11.6-9.8l.1-.2c.5-1.8.7-3.9.7-6.3L241.7 31c0-8.7-3.3-13.9-10.1-15.7l-.3.1z"/></defs><clipPath id="SVGID_4_"><use overflow="visible" xlink:href="#SVGID_3_"/></clipPath><path d="M5.8 176.3l249-46.1-.1-17.5-249 46.4z" class="st1"/><defs><path id="SVGID_5_" d="M231.3 15.4c-1.9-.5-4-.7-6.4-.7l-192.6 1c-11.2.1-16.5 5.4-16.4 16.6l.6 108.8c0 8.7 3.3 13.9 10.1 15.7h.2c.7.2 1.5.3 2.3.4l200.8-1.1c6.3-.9 10.1-4.2 11.6-9.8l.1-.2c.5-1.8.7-3.9.7-6.3L241.7 31c0-8.7-3.3-13.9-10.1-15.7l-.3.1z"/></defs><clipPath id="SVGID_6_"><use overflow="visible" xlink:href="#SVGID_5_"/></clipPath><path d="M5 43.6L254.1-2.5 254-9 4.8-5.4z" class="st2"/><defs><path id="SVGID_7_" d="M231.3 15.4c-1.9-.5-4-.7-6.4-.7l-192.6 1c-11.2.1-16.5 5.4-16.4 16.6l.6 108.8c0 8.7 3.3 13.9 10.1 15.7h.2c.7.2 1.5.3 2.3.4l200.8-1.1c6.3-.9 10.1-4.2 11.6-9.8l.1-.2c.5-1.8.7-3.9.7-6.3L241.7 31c0-8.7-3.3-13.9-10.1-15.7l-.3.1z"/></defs><clipPath id="SVGID_8_"><use overflow="visible" xlink:href="#SVGID_7_"/></clipPath><path d="M254.1-4L5 42.1l.1 17.6 249.1-46.5z" class="st3"/><defs><path id="SVGID_9_" d="M231.3 15.4c-1.9-.5-4-.7-6.4-.7l-192.6 1c-11.2.1-16.5 5.4-16.4 16.6l.6 108.8c0 8.7 3.3 13.9 10.1 15.7h.2c.7.2 1.5.3 2.3.4l200.8-1.1c6.3-.9 10.1-4.2 11.6-9.8l.1-.2c.5-1.8.7-3.9.7-6.3L241.7 31c0-8.7-3.3-13.9-10.1-15.7l-.3.1z"/></defs><clipPath id="SVGID_10_"><use overflow="visible" xlink:href="#SVGID_9_"/></clipPath><path d="M5.7 157.6L5.1 53.9l249-42.5.6 103.7z" class="st4"/><defs><path id="SVGID_11_" d="M231.3 15.4c-1.9-.5-4-.7-6.4-.7l-192.6 1c-11.2.1-16.5 5.4-16.4 16.6l.6 108.8c0 8.7 3.3 13.9 10.1 15.7h.2c.7.2 1.5.3 2.3.4l200.8-1.1c6.3-.9 10.1-4.2 11.6-9.8l.1-.2c.5-1.8.7-3.9.7-6.3L241.7 31c0-8.7-3.3-13.9-10.1-15.7l-.3.1z"/></defs><clipPath id="SVGID_12_"><use overflow="visible" xlink:href="#SVGID_11_"/></clipPath><path d="M5.7 167.1L5.6 152l249.1-46.6v15z" class="st5"/><defs><path id="SVGID_13_" d="M231.3 15.4c-1.9-.5-4-.7-6.4-.7l-192.6 1c-11.2.1-16.5 5.4-16.4 16.6l.6 108.8c0 8.7 3.3 13.9 10.1 15.7h.2c.7.2 1.5.3 2.3.4l200.8-1.1c6.3-.9 10.1-4.2 11.6-9.8l.1-.2c.5-1.8.7-3.9.7-6.3L241.7 31c0-8.7-3.3-13.9-10.1-15.7l-.3.1z"/></defs><clipPath id="SVGID_14_"><use overflow="visible" xlink:href="#SVGID_13_"/></clipPath><path d="M5.8 179.8l-.1-7.9 249.1-46.8.1 7.9z" class="st6"/><defs><path id="SVGID_15_" d="M231.3 15.4c-1.9-.5-4-.7-6.4-.7l-192.6 1c-11.2.1-16.5 5.4-16.4 16.6l.6 108.8c0 8.7 3.3 13.9 10.1 15.7h.2c.7.2 1.5.3 2.3.4l200.8-1.1c6.3-.9 10.1-4.2 11.6-9.8l.1-.2c.5-1.8.7-3.9.7-6.3L241.7 31c0-8.7-3.3-13.9-10.1-15.7l-.3.1z"/></defs><clipPath id="SVGID_16_"><use overflow="visible" xlink:href="#SVGID_15_"/></clipPath><path d="M254.7 96.5L5.5 143.4" class="st7"/><defs><path id="SVGID_17_" d="M231.3 15.4c-1.9-.5-4-.7-6.4-.7l-192.6 1c-11.2.1-16.5 5.4-16.4 16.6l.6 108.8c0 8.7 3.3 13.9 10.1 15.7h.2c.7.2 1.5.3 2.3.4l200.8-1.1c6.3-.9 10.1-4.2 11.6-9.8l.1-.2c.5-1.8.7-3.9.7-6.3L241.7 31c0-8.7-3.3-13.9-10.1-15.7l-.3.1z"/></defs><clipPath id="SVGID_18_"><use overflow="visible" xlink:href="#SVGID_17_"/></clipPath><path d="M254.1 4.4l.1 15.1-249 46.6-.1-15z" class="st8"/><defs><path id="SVGID_19_" d="M231.3 15.4c-1.9-.5-4-.7-6.4-.7l-192.6 1c-11.2.1-16.5 5.4-16.4 16.6l.6 108.8c0 8.7 3.3 13.9 10.1 15.7h.2c.7.2 1.5.3 2.3.4l200.8-1.1c6.3-.9 10.1-4.2 11.6-9.8l.1-.2c.5-1.8.7-3.9.7-6.3L241.7 31c0-8.7-3.3-13.9-10.1-15.7l-.3.1z"/></defs><clipPath id="SVGID_20_"><use overflow="visible" xlink:href="#SVGID_19_"/></clipPath><path d="M254.1-8.2v7.9L5.1 46.4 5 38.5z" class="st9"/><defs><path id="SVGID_21_" d="M231.3 15.4c-1.9-.5-4-.7-6.4-.7l-192.6 1c-11.2.1-16.5 5.4-16.4 16.6l.6 108.8c0 8.7 3.3 13.9 10.1 15.7h.2c.7.2 1.5.3 2.3.4l200.8-1.1c6.3-.9 10.1-4.2 11.6-9.8l.1-.2c.5-1.8.7-3.9.7-6.3L241.7 31c0-8.7-3.3-13.9-10.1-15.7l-.3.1z"/></defs><clipPath id="SVGID_22_"><use overflow="visible" xlink:href="#SVGID_21_"/></clipPath><path d="M5 75l249.4-46.9" class="st10"/><defs><path id="SVGID_23_" d="M231.3 15.4c-1.9-.5-4-.7-6.4-.7l-192.6 1c-11.2.1-16.5 5.4-16.4 16.6l.6 108.8c0 8.7 3.3 13.9 10.1 15.7h.2c.7.2 1.5.3 2.3.4l200.8-1.1c6.3-.9 10.1-4.2 11.6-9.8l.1-.2c.5-1.8.7-3.9.7-6.3L241.7 31c0-8.7-3.3-13.9-10.1-15.7l-.3.1z"/></defs><clipPath id="SVGID_24_"><use overflow="visible" xlink:href="#SVGID_23_"/></clipPath><path d="M176.6 61.4l-37.8 7.1V72l37.8-7.1.1 23.3-37.6 7v3.5l37.9-7c1.8-.4 3.1-2 3.2-3.8l-.1-23.9c0-1.8-1.6-3-3.5-2.6m-15.2 17.9c-.1-3.1 1.5-4.7 3.6-5.1 2.7-.5 3.7 1.5 3.7 3.7s-.9 4.6-3.6 5.1c-2.7.6-3.6-1.6-3.7-3.7m11-2c-.1-3.9-2.8-6.9-7.4-6-4.6.9-7.2 4.8-7.2 8.8.1 3.9 2.8 6.9 7.4 6 4.6-.9 7.3-4.9 7.2-8.8m-23.3 10.3c0 .6.5.9 1 .8l1.6-.3c.5-.1.9-.6.9-1.1l-.2-10.3 3.3-.6c.5-.2.9-.6.9-1.2v-.7c0-.5-.5-.9-1-.8l-10.1 1.9c-.6.1-1 .6-1 1.2v.8c0 .5.4.8.9.8l3.3-.6.4 10.1zm-54.6 2c0 1.1-.6 2.2-2.2 2.5l-3 .6v-4.3l2.9-.6c1.6-.2 2.3.4 2.3 1.8m-7.9-3.3c-.6.1-1 .6-1 1.2l.1 12c0 .5.5.9 1 .8l1.6-.3c.5-.1 1-.6 1-1.2v-3.6l2.8-.5c4.9-.9 6-4 6-5.9 0-2.8-1.5-4.5-5.4-3.7l-6.1 1.2zm56.6-1.2c0-2.7-2.4-3.1-5.3-3h-1.4c-1.4 0-2-.2-2-1 0-.9 1.2-1.6 2-1.8 1.2-.2 2.3 0 3.1.5.3.4.9.4 1.4 0l1.2-1.1c.4-.4.4-1 .1-1.3-1.6-1-3.6-1.3-5.6-.9-3.1.6-5.9 2.5-5.8 5.9 0 2.1 1.5 3.2 4.2 3.1l3-.1c1.1 0 1.6.2 1.6.9 0 1.2-1.7 1.9-2.7 2.1-1.4.3-2.4 0-3.4-.5l-.1-.1c-.1 0-.1-.1-.2-.1-.3-.1-.7 0-1.1.2l-1.2 1c-.4.4-.5 1-.1 1.4 1.7 1.2 3.6 1.4 5.7 1 2.8-.4 6.7-2 6.6-6.2m-62.8-2.2l54.7-10.3v-3.5L80.2 79.5c-1.9.4-3.4 2.1-3.4 4l.1 23.4c0 1.9 1.6 3.1 3.6 2.7l55-10.3-.1-3.5-54.9 10.3-.1-23.2zm27.3 5.9l-3.3.6v-3.8l3.3-.6c1.2-.2 1.9.2 1.9 1.5s-.8 2-1.9 2.3m5.5-2.8c0-3.2-2-4.2-5.3-3.6l-6.2 1.2c-.6.1-1 .7-1 1.2l.1 12c.1.5.5.8 1 .7l1.6-.3c.5-.1.8-.5.9-1v-4.3l2.3-.4 2.3 3.6c.3.5.6.9 1.2.8l2.4-.4c.4-.1.7-.5.5-.9l-2.9-4.3c1.9-.9 3.1-2.5 3.1-4.3m13.6-4.5c.5-.1 1-.6 1-1.2v-.8c-.1-.5-.5-.9-1.1-.8l-9.1 1.7c-.5.1-.9.6-1 1.1l.1 12.2c.1.5.5.8 1 .7l9.1-1.7c.6-.1 1-.6 1-1.2v-.8c0-.5-.5-.9-1.1-.8l-6.6 1.2v-3l5.5-1c.6-.1 1-.6 1-1.2v-.7c0-.5-.5-.9-1-.8l-5.5 1v-2.8l6.7-1.1z" class="st11"/></svg>