<svg xmlns="http://www.w3.org/2000/svg" id="Road" width="346.4" height="315.1" viewBox="0 0 346.4 315.1"><style>.st0{fill:#b34c30}.st1{fill:#30302f}.st2{fill:#eae5da}.st3{fill:#333}</style><path id="Road_2_" d="M235.6 107l4.4 3.4c1.6-.5 5-1.5 10.2-3.4l-3.9-2.8c-3.6.9-5.9 1.6-10.7 2.8m24-4.3c2.2-1.2 4.4-2.6 6.3-4.2l-3.3-1.3c-2.8 1.8-4.8 2.6-6.1 3.2l3.1 2.3zm7.8-15.5l2.1-.2c-.6-.8-1.4-1.5-2.2-2.1l-1.1.4c.4.6.9 1.2 1.2 1.9m2.3 6.8c.7-1.2 1.1-2.4 1.1-3.7h-2.6c-.1 1-.6 2-1.3 3l2.8.7zm-8.1-12.4c1.5.9 2.1 1.3 2.6 1.7l.3-.1c-1.2-.6-1.8-1-2.9-1.6m-43.5 29.6c-8.9 2-11 2.6-14.7 3.5l5.2 4.6c7.6-2.1 6-1.7 14.7-4.1l-5.2-4zm-34.1 8.5c-5.8 1.7-11 3.3-16.9 5.4l6.1 5.5c5.2-2 9.8-3.6 16.6-5.8l-5.8-5.1zm-39.5 96.6c9.3 11.3 21.2 23.7 31.5 34.1l19.8-.8c-12.1-11.2-24-22.3-35.3-34.2l-16 .9zm2.9-82.8c-10.7 5.5-15.6 9.7-18.7 12.9l10 3.6c3-2.8 8.8-7 17-11.4l-8.3-5.1zM120 165.4c-.7 10.2 3.6 20.4 8.9 29.4l13.4-.8c-5.5-7.7-11.5-17.5-11.7-26.8l-10.6-1.8zm39.3-59.8c49.9-9.9 80.7-11.4 80.7-19.1 0-20.7-206.1-41.7-206.1-41.7S298 56.1 298 97.9c0 27.7-100.1 36.3-100.1 62.5 0 31.2 130.3 108.1 130.3 108.1h-16.3c-29.1-18.5-89.2-57.2-113-88.1-19.5-25.6-7.2-34.5 22.3-45.9 16.8-6.4 35.3-11.9 50.2-18.1 11.3-4.8 27.3-12.5 22.2-23.2-4.1-8.7-20.2-14.6-29.7-17.7 9.3 3.2 25.5 9.4 29 18 4.2 10-11.5 16.8-22.4 21.1-14.9 5.9-33.5 11-50.5 17.2-29.1 10.7-46.5 21.2-24.7 51 21.7 29.1 71.4 63.6 104.9 85.7H118.6C104.8 248 92 229 82.8 212.2c-11.1-20.4-19.6-40.6-8.8-58.5 10.3-17 34.7-27.4 54.3-33.9 35.2-11.5 74.4-16.6 98.7-23.1 10.5-2.9 22.2-7 14-13.8 7.2 6.8-4.4 10.3-14.3 12.7-25.3 5.9-63.5 10.3-99.4 21.4-21 6.5-45.9 16.9-57.1 34.7-12 19-4 40.4 7.7 62.8 8.6 16.3 20.2 34.3 32.9 54H94.9c-25.8-42.3-41-72.7-41-95.9 0-42.8 58.7-57.8 105.4-67" class="st0"/><g id="Car"><path d="M214.4 52.3c-.3-.1-.6-.1-1-.1h-.2c-.4 0-.7 0-1.1.1h-.1c-.4.1-.7.2-1.1.3-.7.3-1.4.7-2 1.2-.3.2-.5.5-.8.8l-.1.1-.6.9s0 .1-.1.1c-.2.3-.3.7-.5 1v.1c-.1.4-.2.7-.3 1.1v.2c0 .2-.1.5-.1.7v1.1c0 .3.1.7.2 1 0 .1 0 .1.1.2.7 2 2.2 3.7 4.3 4.4.3.1.7.2 1.1.3h.4c.2 0 .5.1.7 0 2.7 0 5-1.6 6.1-3.9l.3-.9c.1-.3.2-.6.2-.9 0-.2.1-.4.1-.7.5-3.4-2-6.5-5.5-7.1zM168.6 50v-.2c0-.1 0-.3-.1-.4 0-.1-.1-.2-.1-.3s-.1-.2-.1-.3c-.1-.2-.1-.3-.2-.5v-.1c-.4-.8-.9-1.6-1.6-2.2-.1-.1-.3-.3-.5-.4l-.2-.2c-.1-.1-.2-.2-.3-.2-.1-.1-.2-.1-.3-.2-.1 0-.2-.1-.3-.1-.1-.1-.2-.1-.4-.2-.1 0-.2-.1-.3-.1s-.3-.1-.4-.1c-.1 0-.2-.1-.3-.1-.2 0-.4-.1-.6-.1h-.1c-.3-.1-.6-.1-1-.1h-.2c-.3 0-.6 0-.9.1h-.1c-.3 0-.6.1-.8.2h-.2c-.3.1-.6.2-.9.4 0 0-.1 0-.1.1-.3.1-.5.3-.7.5 0 0-.1 0-.1.1-.1 0-.1.1-.2.1-.2.1-.3.3-.5.4l-.2.2c-.2.2-.4.4-.6.7 0 .1-.1.1-.1.2-.1.1-.2.2-.2.3-.1.1-.1.2-.2.3 0 .1-.1.2-.1.3-.1.1-.1.3-.2.4 0 .1-.1.1-.1.2-.1.2-.1.3-.2.5v.1c-.1.2-.1.4-.1.7-.1.3-.1.6-.1 1v.9c0 .1.1.2.1.4s.1.5.2.7c0 .1.1.1.1.2.8 2.3 2.8 4.2 5.4 4.6h.1c.3 0 .7.1 1 .1s.6 0 .8-.1h.2c2.2-.4 4.1-1.8 5.1-3.8.2-.3.3-.7.4-1.1.1-.2.1-.5.2-.7 0-.2.1-.5.1-.7v-.9c0-.3-.1-.5-.1-.6z" class="st1"/><path d="M228.6 55.6v-.5c0-.1 0-.3-.1-.4 0-.2 0-.4-.1-.6v-3.7c0-.3 0-.6.1-.9v-.6c-.2-1.3-1.3-2.2-2.6-2.9 0 0-.1 0-.1-.1-.4-.2-.8-.4-1.2-.7-.2-.1-.3-.2-.5-.2-.3-.1-.5-.3-.8-.4-.2-.1-.3-.2-.5-.2-.3-.1-.6-.2-.8-.4-.1-.1-.3-.1-.4-.2l-.6-.2c-.1 0-.2-.1-.3-.1s-.2-.1-.3-.1l-.6-.3c-.2-.1-.5-.2-.7-.4-.1 0-.1-.1-.2-.1-.2-.1-.5-.3-.7-.4 0 0-.1 0-.1-.1-.2-.1-.4-.3-.6-.4l-.1-.1c-.2-.1-.3-.3-.5-.4l-.1-.1-.4-.4-.2-.2-.4-.4-.3-.3c-.1-.1-.3-.3-.4-.5l-.4-.4-.3-.3-.4-.4-.3-.3-.4-.4c-.1-.1-.2-.2-.4-.3s-.3-.3-.5-.4c-.1-.1-.3-.2-.4-.3-.2-.1-.4-.3-.6-.4-.1-.1-.3-.2-.4-.3-.2-.2-.5-.3-.7-.5-.1-.1-.3-.2-.4-.3-.3-.2-.6-.4-.9-.5-.1-.1-.3-.2-.4-.2-.5-.3-1-.5-1.5-.8-.3-.2-.7-.3-1-.5-3.8-1.6-9.3-2.4-14.3-2.6h-4.3c-.4 0-.8 0-1.2.1-.7.1-1.3.1-2 .2-.2 0-.3 0-.5.1-.5.1-1 .2-1.5.2h-.3c-.6.1-1.1.2-1.6.3-.2 0-.3.1-.5.1-.4.1-.8.2-1.1.3-.1 0-.3.1-.4.1-.5.1-.9.3-1.3.4-.2.1-.3.1-.5.2l-.9.3c-.1.1-.3.1-.4.2-.4.1-.7.3-1.1.4-.1 0-.2.1-.3.1-.3.1-.5.2-.8.3-.1 0-.2.1-.3.1-.3.1-.6.3-.9.4-.1 0-.1 0-.1.1-.3.1-.5.3-.8.4-.1 0-.1.1-.2.1-.4.2-.8.4-1.1.6-.1 0-.2.1-.3.1s-.2.1-.3.1c-.9.5-1.6.8-2.2.8-.9 0-1.8-.1-2.7-.1h-3.4c-2 .1-3.7.2-5.1.4h-.1c-.2 0-.3.1-.5.1h-.2c-.1 0-.2 0-.3.1-.1 0-.3.1-.4.1h-.1c-3.6.8-4.2 1.9-4.2 1.9l-.2.2c-.2.2-.3.3-.4.5 0 .1-.1.1-.1.2-.1.1-.1.2-.2.3 0 .1-.1.1-.1.2-.1.1-.1.2-.1.3s-.1.1-.1.2-.1.3-.1.4c0 .1 0 .2-.1.3v.9c0 .1-.1.2-.1.3l-.3.6v.1c-.1.2-.2.4-.2.7 0 .1 0 .1-.1.2-.1.3-.1.5-.2.8v.1c-.1.3-.1.6-.1.9-.1.9-.1 1.9 0 2.6v.1c0 .2.1.4.2.5v.1s0 .1.1.1c0 .1.1.1.1.2l.1.1s.1.1.2.1l.1.1c.1.1.2.1.3.1l5 .8v-1c0-.3 0-.7.1-1 .1-.4.2-.9.3-1.3 1.3-4.1 5.4-6.8 9.8-6.1.1 0 .2 0 .3.1.2 0 .4.1.6.1.1 0 .2.1.3.1.2.1.4.1.5.2.1 0 .2.1.3.1.2.1.3.1.5.2.1 0 .2.1.3.2.2.1.3.2.5.3.1.1.2.1.3.2.1.1.3.2.4.3.2.1.3.3.5.4l.2.2c.9.8 1.6 1.7 2 2.8 0 .1.1.1.1.2.1.2.2.4.2.6.1.2.1.3.1.5 0 .1.1.2.1.4s.1.4.1.6c0 .1 0 .2.1.3 0 .2 0 .4.1.6v1.2c0 .2 0 .5-.1.7v.1c0 .3-.1.6-.2.8 0 .1-.1.2-.1.3-.1.3-.2.5-.3.8l12.5 2 22 3.5v-1.2c0-.3 0-.5.1-.8 0-.3.1-.6.2-.9 0-.1 0-.1.1-.2.1-.2.1-.4.2-.6 0-.1.1-.2.1-.2.1-.2.2-.4.2-.6 0-.1.1-.2.1-.2.1-.2.2-.4.3-.5s.1-.2.2-.3c.1-.1.2-.3.3-.4.1-.2.2-.3.4-.4l.2-.2c.8-.9 1.7-1.5 2.8-2 .1 0 .1 0 .2-.1.2-.1.4-.2.6-.2.1 0 .2-.1.4-.1.1 0 .3-.1.5-.1.1 0 .3-.1.4-.1.1 0 .3-.1.4-.1h1.7c.2 0 .3 0 .5.1h.4c.1 0 .2 0 .3.1.2 0 .4.1.6.1.1 0 .3.1.4.1.2 0 .3.1.5.1.1 0 .2.1.4.2.1.1.3.1.4.2.1.1.2.1.3.2.1.1.3.1.4.2.1.1.2.2.4.3.1.1.2.1.3.2.2.1.3.3.5.4l.1.1c.9.8 1.6 1.7 2 2.8 0 .1.1.2.1.3.1.2.1.3.2.5s.1.3.2.5c0 .1.1.2.1.3 0 .2.1.4.1.6v.2c0 .2 0 .4.1.6v1.1c0 .3 0 .6-.1.8v.2c-.1.3-.1.6-.2.9-.1.2-.1.4-.2.6 0 .1-.1.2-.1.4l2.9.5h.6c1.2 0 2.2-.8 2.7-1.8.1-.2.2-.4.2-.6 0-.1.1-.3.1-.4.1-.7.2-1.2.4-2.1 0-.3.1-.5.1-.9 0-.3.1-.5.1-.7v-.1c-.7 0-.7-.2-.7-.5 0 .1 0 .1 0 0zM191 39.2l-.2.7c0 .1-.1.2-.2.2l-5-.6-12.3-1.4c-.1 0-.2-.1-.3-.1-.1-.1-.1-.2-.1-.3 0-.2 0-.4.3-.6.6-.3 1.2-.7 1.8-.9.1 0 .2-.1.3-.1.6-.3 1.2-.6 1.9-.8.1 0 .2-.1.2-.1.7-.3 1.4-.5 2-.7.1 0 .1 0 .2-.1.8-.2 1.6-.5 2.3-.6l1.2-.3c.1 0 .3-.1.4-.1.3-.1.6-.1.9-.2.1 0 .3 0 .4-.1.4-.1.7-.1 1.1-.1h.4c.3 0 .6-.1.9-.1h1.5c1.9 0 3.2.2 3.8.3.1 0 .1.1.1.1v.2l-1.6 5.7zm21.5 3.7l-.1.1h-.2l-17.8-2.5h-.1l-.1-.1v-.2l1.3-4.4.6-1.9.1-.1h.2c.1 0 .3 0 .5.1h.1c.2 0 .4.1.7.1h.2c.3 0 .5.1.8.2h.2c.3.1.6.1 1 .2.1 0 .1 0 .2.1.3.1.7.2 1.1.3.1 0 .1 0 .2.1.4.1.8.3 1.2.4 0 0 .1 0 .2.1.4.2.9.4 1.4.6h.1c.5.2 1 .5 1.5.7 3.7 1.9 5.7 4.3 6.7 5.6.1.1.2.2.2.3-.1.1-.1.2-.2.3z" class="st1"/><path d="M190.6 40.1c.1 0 .2-.1.2-.2 0 .2-.1.2-.2.2zM173 38c.1.1.2.1.3.1l12.3 1.4-12.3-1.4c-.1 0-.2-.1-.3-.1zm15.8-5.1c1.3 0 2.6.1 3.8.3-.6 0-1.9-.3-3.8-.3zm3.8.4zm1.9 7.2zm-3.5-1.3l1.8-5.6zm-18.1-1.8c0 .1-.1.2 0 .3v-.3zm0 0c0-.1.1-.2.2-.2-.1 0-.1.1-.2.2zm32.7-.8c-.5-.3-1-.5-1.5-.7.5.2 1 .5 1.5.7 3.7 1.9 5.8 4.4 6.7 5.6-.9-1.2-3-3.7-6.7-5.6zm6.9 6c.1.1.1.2 0 .3.1-.1.1-.2 0-.3zm-18.2-2.3c0 .1.1.1.1.2-.1-.1-.1-.1-.1-.2zm1.8-6.4l-.6 1.9.6-1.9c0-.1 0-.1 0 0z" class="st2"/><path d="M230.4 54.4c-.1-.8-.2-1.9 0-4.7.2-3.2-2.5-4.8-3.7-5.5-1.5-.9-3.2-1.6-4.6-2.1l-.9-.4c-2.3-.9-3.4-2.1-4.9-3.7-1.9-1.9-4-4.1-8.7-6.4-5.6-2.8-15.2-3.6-21.8-3.1-8.8.7-14 3.5-17.2 5.1-.8.4-1.9 1-2.1 1-15.3-.5-18.1 2.6-18.5 3.5-1.5 1.5-1.8 3.3-1.9 4.2-1 2.1-1.7 6.1-.7 8.3.5 1.1 1.4 1.8 2.4 1.9l5.7.9c1 3.2 3.7 5.6 7.1 6.1.5.1.9.1 1.4.1 2.9 0 5.6-1.4 7.2-3.8l35.8 5.7c1 3.2 3.7 5.6 7.1 6.1.5.1.9.1 1.4.1 2.9 0 5.6-1.4 7.2-3.8l3.6.6c.3 0 .5.1.8.1 2.4 0 4.5-1.7 5-4 .2-1.1.4-1.8.6-3.5-.1-1.2-.2-1.9-.3-2.7zm-61.7-3.2c0 .3 0 .6-.1.8 0 .2-.1.5-.2.7-.1.4-.2.7-.4 1.1-1 2-2.9 3.5-5.1 3.8h-.2c-.3 0-.6.1-.8.1-.3 0-.6 0-1-.1h-.1c-2.6-.4-4.6-2.3-5.4-4.6 0-.1-.1-.1-.1-.2-.1-.2-.1-.5-.2-.7 0-.1-.1-.2-.1-.4v-.9c0-.3 0-.6.1-1 0-.2.1-.5.1-.7V49c0-.2.1-.3.2-.5 0-.1.1-.1.1-.2.1-.1.1-.3.2-.4 0-.1.1-.2.1-.3.1-.1.1-.2.2-.3.1-.1.2-.2.2-.3s.1-.1.1-.2c.6-.8 1.4-1.5 2.3-1.9 0 0 .1 0 .1-.1.3-.1.6-.3.9-.4h.2c.3-.1.5-.2.8-.2h.1c.3 0 .6-.1.9-.1h.2c.3 0 .6 0 1 .1h.1c.2 0 .4.1.6.1.1 0 .2.1.3.1s.3.1.4.1c.1 0 .2.1.3.1.1.1.2.1.4.2.1 0 .2.1.3.1.1.1.2.1.3.2.1.1.2.1.3.2.1.1.2.1.2.2.2.1.3.3.5.4.7.6 1.2 1.4 1.6 2.2v.1c.1.2.1.3.2.5 0 .1.1.2.1.3s.1.2.1.3.1.3.1.4v.9c.1.2.1.4.1.6zm51.4 8.3c0 .2 0 .4-.1.7 0 .3-.1.6-.2.9l-.3.9c-1.1 2.4-3.5 3.9-6.1 3.9h-1.1c-.4-.1-.7-.1-1.1-.3-2.1-.7-3.7-2.4-4.3-4.4 0-.1 0-.1-.1-.2-.1-.3-.2-.7-.2-1v-.2c0-.3-.1-.6 0-1 0-.2 0-.5.1-.7v-.2c.1-.4.2-.8.3-1.1v-.1c.1-.4.3-.7.5-1 0 0 0-.1.1-.1l.6-.9s0-.1.1-.1c.2-.3.5-.6.8-.8.6-.5 1.3-.9 2-1.2.3-.1.7-.2 1.1-.3h.1c.4-.1.7-.1 1.1-.1h.2c.3 0 .6 0 1 .1 3.3.6 5.8 3.7 5.5 7.2zm8.4-3.2c0 .3 0 .5-.1.8 0 .3-.1.6-.1.9-.1.8-.2 1.4-.4 2.1 0 .1-.1.3-.1.4 0 .2-.1.4-.2.6-.5 1.1-1.5 1.8-2.7 1.8h-.6l-2.9-.5c0-.1.1-.2.1-.4.1-.2.2-.4.2-.6.1-.3.2-.6.2-.9v-.2c0-.3.1-.6.1-.8v-1.1c0-.2 0-.4-.1-.6v-.2c0-.2-.1-.4-.1-.6 0-.1-.1-.2-.1-.3 0-.2-.1-.3-.2-.5s-.1-.3-.2-.5c0-.1-.1-.2-.1-.3-.2-.5-.5-1-.9-1.5-.3-.5-.7-.9-1.2-1.3l-.1-.1c-.2-.1-.3-.3-.5-.4-.1-.1-.2-.2-.3-.2-.1-.1-.2-.2-.4-.3-.1-.1-.3-.2-.4-.2-.1-.1-.2-.1-.3-.2-.1-.1-.3-.1-.4-.2-.1-.1-.2-.1-.4-.2-.1-.1-.3-.1-.5-.1-.1 0-.3-.1-.4-.1-.2 0-.4-.1-.6-.1-.1 0-.2 0-.3-.1h-.4c-.2 0-.3 0-.5-.1h-1.7c-.1 0-.3.1-.4.1-.1 0-.3.1-.4.1-.2 0-.3.1-.5.1-.1 0-.2.1-.4.1-.2.1-.4.2-.6.2-.1 0-.1 0-.2.1-.5.2-1 .5-1.5.9-.5.3-.9.7-1.3 1.2l-.2.2c-.1.1-.2.3-.4.4-.1.1-.2.3-.3.4-.1.1-.1.2-.2.3-.1.2-.2.3-.3.5 0 .1-.1.2-.1.2-.1.2-.2.4-.2.6 0 .1-.1.1-.1.2-.1.2-.1.4-.2.6 0 .1 0 .1-.1.2-.1.3-.1.6-.2.9 0 .3-.1.5-.1.8v1.2l-22-3.5-12.5-2c.1-.3.2-.5.3-.8 0-.1 0-.1.1-.2.1-.3.2-.5.2-.8v-.1c0-.2.1-.5.1-.7v-1.2c0-.2 0-.4-.1-.6 0-.1 0-.2-.1-.3 0-.2-.1-.4-.1-.6 0-.1-.1-.2-.1-.4s-.1-.3-.1-.5c-.1-.2-.1-.4-.2-.6 0-.1-.1-.1-.1-.2-.2-.5-.5-1-.9-1.5-.3-.5-.7-.9-1.2-1.3l-.2-.2c-.2-.1-.3-.3-.5-.4-.1-.1-.3-.2-.4-.3-.1-.1-.2-.1-.3-.2-.2-.1-.3-.2-.5-.3-.1 0-.2-.1-.3-.2-.2-.1-.3-.2-.5-.2-.1 0-.2-.1-.3-.1-.2-.1-.3-.1-.5-.2-.1 0-.2-.1-.3-.1-.2-.1-.4-.1-.6-.1-.1 0-.2 0-.3-.1-4.4-.7-8.5 2-9.8 6.1-.1.4-.2.8-.3 1.3-.1.3-.1.7-.1 1v1l-5-.8c-.1 0-.2-.1-.3-.1l-.1-.1c-.1 0-.1-.1-.2-.1l-.1-.1c0-.1-.1-.1-.1-.2 0 0 0-.1-.1-.1v-.1c-.1-.2-.1-.3-.2-.5v-.1c-.1-.7-.1-1.7 0-2.6 0-.3.1-.6.1-.9v-.1c.1-.3.1-.5.2-.8 0-.1 0-.1.1-.2.1-.2.1-.5.2-.7v-.1c.1-.2.2-.5.3-.6V43l.1-.2v-.9c0-.1 0-.2.1-.3 0-.1.1-.3.1-.4 0-.1.1-.1.1-.2s.1-.2.1-.3.1-.1.1-.2c.1-.1.1-.2.2-.3 0-.1.1-.1.1-.2.1-.2.3-.3.4-.5l.3-.4s.7-1 4-1.7h.1c.1 0 .3-.1.4-.1.1 0 .2 0 .3-.1h.2c.2 0 .3-.1.5-.1h.1c1.4-.2 3-.4 5.1-.4h3.4c.8 0 1.7 0 2.7.1.5 0 1.2-.3 2.2-.8.1 0 .2-.1.3-.1s.2-.1.3-.1c.1-.1.2-.1.3-.2.2-.1.5-.3.8-.4.1 0 .1-.1.2-.1.3-.1.5-.3.8-.4.1 0 .1 0 .1-.1.3-.1.6-.3.9-.4.1 0 .2-.1.3-.1.3-.1.5-.2.8-.3.1 0 .2-.1.3-.1.3-.1.7-.3 1.1-.4.1-.1.3-.1.4-.2l.9-.3c.2-.1.3-.1.5-.2.4-.1.9-.3 1.3-.4.1 0 .3-.1.4-.1.4-.1.7-.2 1.1-.3.2 0 .3-.1.5-.1.5-.1 1.1-.2 1.6-.3h.3c.5-.1 1-.2 1.5-.2.2 0 .3 0 .5-.1.6-.1 1.3-.2 2-.2.4 0 .8-.1 1.2-.1h4.3c5 .1 10.4 1 14.3 2.6.4.1.7.3 1 .5.5.3 1 .5 1.5.8.1.1.3.2.4.2.3.2.6.4.9.5.2.1.3.2.4.3.2.2.5.3.7.5.2.1.3.2.4.3.2.1.4.3.6.4.1.1.3.2.4.3.2.1.3.3.5.4.1.1.2.2.4.3l.4.4.3.3.4.4.3.3.4.4.4.4.3.3.4.4.2.2.4.4.1.1c.2.1.3.3.5.4l.1.1c.2.2.4.3.6.4 0 0 .1 0 .1.1.2.1.4.3.7.4 0 0 .1.1.2.1.2.1.4.3.7.4l.6.3c.1 0 .2.1.3.1l.3.1c.3.1.6.3 1 .4.3.1.6.2.8.4.2.1.3.1.5.2.3.1.5.2.8.4.2.1.3.1.5.2.4.2.8.4 1.2.7 0 0 .1 0 .1.1 1.3.8 2.5 1.6 2.6 2.9v.6c0 .3 0 .6-.1.9v3.7c0 .4.1.7.1 1v.6c1.2-.1 1.2.1 1.1.3z" class="st2"/></g><g id="Cone"><path d="M144.3 282.5h-7.7l-27.3-89c-3.4-11.3-8.4-17.1-14.7-17.1-6.3 0-11.3 5.7-14.8 17l-27.3 89h-7.7c-5.1 0-9.3 4.2-9.3 9.3 0 5.1 4.2 9.3 9.3 9.3h99.5c5.1 0 9.3-4.2 9.3-9.3 0-5-4.1-9.2-9.3-9.2z" class="st2"/><path d="M144.4 285.7h-10.2c0-.3-.1-.7-.3-.9l-27.7-90.4c-3.7-12.2-8.4-14.7-11.6-14.7-3.3 0-7.9 2.6-11.6 14.7l-27.8 90.8c-.1.2-.1.3-.1.5H44.8c-3.3 0-6 2.7-6 6s2.7 6 6 6h99.6c3.3 0 6-2.7 6-6s-2.7-6-6-6zm-39.3-83.5l6.4 20.9H77.7l6.4-20.9h21zm12.8 41.8l6.4 20.9H64.9l6.4-20.9h46.6z" class="st3"/></g></svg>