<svg xmlns="http://www.w3.org/2000/svg" id="Sewer" width="220" height="203.3" viewBox="0 0 220 203.3"><style>.st0{fill:#333}</style><path id="Sewer_1_" d="M191.1 70.1C174 24.3 123 1.1 77.3 18.2c-45.8 17.1-69 68.1-51.9 113.9s68.1 69 113.9 51.9c45.7-17.1 68.9-68.1 51.8-113.9zM42.3 78.9c1.1-3.3 2.4-6.4 4-9.5l14.1 37.7c.7 1.8-.2 3.9-2.1 4.5-1.8.7-3.8-.2-4.5-2.1L42.3 78.9zm4.2 37.1c-1.8.7-3.9-.2-4.5-2.1l-3.2-8.5c-.4-5.9 0-11.7 1.1-17.3l8.7 23.3c.7 1.9-.3 3.9-2.1 4.6zM141 80.7c-1.8.7-3.9-.2-4.5-2.1l-17.3-46.3c2.8.4 5.5 1.1 8.2 1.8l15.7 42c.7 1.9-.3 3.9-2.1 4.6zm16.4 69.7c-1.8 1.8-3.6 3.5-5.6 5L132.5 104c-.7-1.8.2-3.9 2.1-4.5 1.8-.7 3.8.3 4.5 2.1l18.3 48.8zM134.2 36.5c3.2 1.3 6.3 2.8 9.2 4.5l11.5 30.7c.7 1.8-.2 3.9-2 4.5-1.8.7-3.9-.2-4.5-2.1l-14.2-37.6zm17.2 10c4.5 3.6 8.6 7.7 12.2 12.3l3.2 8.5c.7 1.8-.3 3.9-2.1 4.5-1.8.7-3.9-.2-4.5-2.1l-8.8-23.2zM113 31.6l18.3 48.9c.7 1.8-.2 3.9-2 4.5-1.8.7-3.9-.2-4.5-2.1l-19.3-51.5c2.5 0 5 .1 7.5.2zm6.5 53.4c.7 1.8-.2 3.9-2.1 4.5-1.8.7-3.8-.2-4.5-2.1L94.1 37.1c1.3-1.4 2.4-3 3.2-4.8.8-.1 1.6-.3 2.4-.4L119.5 85zm-11.8 4.4c.7 1.8-.3 3.9-2.1 4.5-1.8.7-3.9-.2-4.5-2.1L82.9 43.3c1.2-.2 2.3-.5 3.4-.9s2.2-1 3.2-1.5l18.2 48.5zm-11.9 4.4c.7 1.8-.2 3.9-2 4.5-1.8.7-3.9-.2-4.5-2.1l-19.8-53c.7-.4 1.4-.9 2.1-1.3 1.7.8 3.6 1.3 5.5 1.5l18.7 50.4zm-22.4 32.3c-.7-1.8.2-3.9 2.1-4.5 1.8-.7 3.8.3 4.5 2.1L97.3 170c-2.8-.4-5.5-1.1-8.2-1.8l-15.7-42.1zm8.9 39.6c-3.2-1.3-6.3-2.8-9.2-4.5l-11.5-30.7c-.7-1.8.2-3.9 2-4.5 1.8-.7 3.9.3 4.5 2.1l14.2 37.6zm-.4-62.9c-1.8.7-3.9-.2-4.5-2.1L59.1 51.8c1.8-1.8 3.7-3.5 5.7-5L84 98.2c.7 1.9-.2 3.9-2.1 4.6zm-9.7-.2c.7 1.8-.2 3.9-2 4.5-1.8.7-3.9-.2-4.5-2.1L50 63c1.5-2.3 3.2-4.6 5-6.8l17.2 46.4zm-20.3 27.8c1.8-.7 3.9.3 4.5 2.1l8.7 23.3c-4.5-3.6-8.6-7.7-12.1-12.3l-3.2-8.5c-.7-1.9.2-4 2.1-4.6zm51.6 40.2l-18.3-48.9c-.7-1.8.3-3.9 2.1-4.6 1.8-.7 3.9.3 4.5 2.1l19.3 51.5c-2.5.1-5.1.1-7.6-.1zm-6.4-53.4c-.7-1.8.2-3.9 2.1-4.5 1.8-.7 3.8.3 4.5 2.1l18.8 50.3c-1.3 1.4-2.4 3.1-3.2 4.8l-2.4.3-19.8-53zm11.8-4.4c-.7-1.8.3-3.9 2.1-4.5 1.8-.7 3.9.3 4.5 2.1l18.2 48.6c-1.1.2-2.3.5-3.4 1-1.1.4-2.2.9-3.2 1.5l-18.2-48.7zm11.8-4.4c-.7-1.8.2-3.9 2-4.5 1.8-.7 3.9.3 4.5 2.1l19.8 53c-.7.4-1.4.9-2.1 1.3-1.8-.8-3.6-1.3-5.5-1.5l-18.7-50.4zm23.6-8.8c-.7-1.8.3-3.9 2.1-4.5 1.8-.7 3.9.3 4.5 2.1l15.7 42c-1.5 2.3-3.2 4.6-5 6.8l-17.3-46.4zm11.9-4.5c-.7-1.8.2-3.9 2.1-4.5 1.8-.7 3.8.3 4.5 2.1l11.5 30.7c-1.1 3.2-2.4 6.4-4 9.4l-14.1-37.7zm11.8-4.4c-.7-1.8.3-3.9 2.1-4.5 1.8-.7 3.9.3 4.5 2.1l3.2 8.5c.4 5.8 0 11.6-1.1 17.3L168 90.7z" class="st0"/></svg>