<svg xmlns="http://www.w3.org/2000/svg" id="Tree" width="100" height="167.7" viewBox="0 0 100 167.7"><style>.st0{fill:#719b3f}</style><g id="GreenTree"><path d="M48.6 67.2l-1.7 22.5-15.6-14.6-2 2.2 17 20.1-4.1 53.7h15.5l-3.5-46.2L73 86.1l-2-2.7-17.4 14.2-2.3-30.4z" class="st0"/><path d="M49.9 13s-37 39.2-37 69.9c0 26.2 13.4 35.5 28.9 37.7l1.7-22.2-17.8-21.2 5.5-6 13.4 12.5L46 64.4h7.9L56 92.1l15.4-12.6 3.8 4.9 1.5 1.9L57 106l1.1 14.5c15.5-2.2 28.8-11.5 28.8-37.6 0-30.7-37-69.9-37-69.9" class="st0"/></g></svg>