<svg xmlns="http://www.w3.org/2000/svg" id="Watertap" width="146.7" height="177.9" viewBox="0 0 146.7 177.9"><style>.st0{fill:#719b3f}</style><path id="Water" d="M33.8 134.7c2.7-4.5 5.5-8.3 5.6-8.4l2-2.7 2-2.7 2 2.7 2 2.7c.1.2 2.8 3.9 5.6 8.4 4.1 6.8 6 11.6 6 15 0 8.5-7 15.4-15.5 15.4-8.6 0-15.5-6.9-15.5-15.4-.3-3.4 1.7-8.2 5.8-15" class="st0"/><path id="Tap_1_" d="M25.6 98.9h1.8v-7.4c0-21.4 17.4-38.8 38.8-38.8h5v-4.8c0-1.5 1.2-2.7 2.7-2.7h9V31.8H72.3a6.7 6.7 0 0 1 0-13.4h30.2a6.7 6.7 0 0 1 0 13.4H91.9v13.3h9c1.5 0 2.7 1.2 2.7 2.7v4.8h14.5v32.1h-52c-3.7 0-6.6 3-6.6 6.6v7.4h1.9c1.2 0 2.2 1 2.2 2.2v13.7c0 1.2-1 2.2-2.2 2.2H25.6c-1.2 0-2.2-1-2.2-2.2v-13.7c0-1.1 1-2 2.2-2" class="st0"/></svg>